<?xml version="1.0" encoding="utf-8" standalone="no"?>
<!DOCTYPE svg PUBLIC "-//W3C//DTD SVG 1.1//EN"
  "http://www.w3.org/Graphics/SVG/1.1/DTD/svg11.dtd">
<svg xmlns:xlink="http://www.w3.org/1999/xlink" width="1610.761976pt" height="403.773595pt" viewBox="0 0 1610.761976 403.773595" xmlns="http://www.w3.org/2000/svg" version="1.1">
 <metadata>
  <rdf:RDF xmlns:dc="http://purl.org/dc/elements/1.1/" xmlns:cc="http://creativecommons.org/ns#" xmlns:rdf="http://www.w3.org/1999/02/22-rdf-syntax-ns#">
   <cc:Work>
    <dc:type rdf:resource="http://purl.org/dc/dcmitype/StillImage"/>
    <dc:date>2025-02-02T16:38:10.139983</dc:date>
    <dc:format>image/svg+xml</dc:format>
    <dc:creator>
     <cc:Agent>
      <dc:title>Matplotlib v3.9.3, https://matplotlib.org/</dc:title>
     </cc:Agent>
    </dc:creator>
   </cc:Work>
  </rdf:RDF>
 </metadata>
 <defs>
  <style type="text/css">*{stroke-linejoin: round; stroke-linecap: butt}</style>
 </defs>
 <g id="figure_1">
  <g id="patch_1">
   <path d="M 0 403.773595 
L 1610.761976 403.773595 
L 1610.761976 0 
L 0 0 
z
" style="fill: #ffffff"/>
  </g>
  <g id="axes_1">
   <g id="line2d_1">
    <path d="M 64.609196 44.2832 
L 1598.926576 44.2832 
" clip-path="url(#p67e90ed8f1)" style="fill: none; stroke: #000000; stroke-width: 2; stroke-linecap: square"/>
   </g>
   <g id="line2d_2">
    <path d="M 64.609196 90.637199 
L 1598.926576 90.637199 
" clip-path="url(#p67e90ed8f1)" style="fill: none; stroke: #000000; stroke-width: 2; stroke-linecap: square"/>
   </g>
   <g id="line2d_3">
    <path d="M 64.609196 136.991198 
L 1598.926576 136.991198 
" clip-path="url(#p67e90ed8f1)" style="fill: none; stroke: #000000; stroke-width: 2; stroke-linecap: square"/>
   </g>
   <g id="line2d_4">
    <path d="M 64.609196 183.345198 
L 1598.926576 183.345198 
" clip-path="url(#p67e90ed8f1)" style="fill: none; stroke: #000000; stroke-width: 2; stroke-linecap: square"/>
   </g>
   <g id="line2d_5">
    <path d="M 64.609196 229.699197 
L 1598.926576 229.699197 
" clip-path="url(#p67e90ed8f1)" style="fill: none; stroke: #000000; stroke-width: 2; stroke-linecap: square"/>
   </g>
   <g id="line2d_6">
    <path d="M 64.609196 276.053196 
L 1598.926576 276.053196 
" clip-path="url(#p67e90ed8f1)" style="fill: none; stroke: #000000; stroke-width: 2; stroke-linecap: square"/>
   </g>
   <g id="line2d_7">
    <path d="M 64.609196 322.407196 
L 1598.926576 322.407196 
" clip-path="url(#p67e90ed8f1)" style="fill: none; stroke: #000000; stroke-width: 2; stroke-linecap: square"/>
   </g>
   <g id="line2d_8">
    <path d="M 64.609196 368.761195 
L 1598.926576 368.761195 
" clip-path="url(#p67e90ed8f1)" style="fill: none; stroke: #000000; stroke-width: 2; stroke-linecap: square"/>
   </g>
   <g id="patch_2">
    <path d="M 59.973797 21.1062 
L -1098.876188 21.1062 
L -1098.876188 438.292194 
L 59.973797 438.292194 
z
" clip-path="url(#p67e90ed8f1)" style="fill: #ffffff; stroke: #ffffff; stroke-width: 1.5; stroke-linejoin: miter"/>
   </g>
   <g id="line2d_9">
    <path d="M 182.348355 90.637199 
L 182.348355 44.2832 
" clip-path="url(#p67e90ed8f1)" style="fill: none; stroke: #002d9c; stroke-width: 2; stroke-linecap: square"/>
   </g>
   <g id="line2d_10">
    <path d="M 228.702354 368.761195 
L 228.702354 44.2832 
" clip-path="url(#p67e90ed8f1)" style="fill: none; stroke: #002d9c; stroke-width: 2; stroke-linecap: square"/>
   </g>
   <g id="line2d_11">
    <path d="M 275.056354 136.991198 
L 275.056354 90.637199 
" clip-path="url(#p67e90ed8f1)" style="fill: none; stroke: #002d9c; stroke-width: 2; stroke-linecap: square"/>
   </g>
   <g id="line2d_12">
    <path d="M 321.410353 368.761195 
L 321.410353 44.2832 
" clip-path="url(#p67e90ed8f1)" style="fill: none; stroke: #002d9c; stroke-width: 2; stroke-linecap: square"/>
   </g>
   <g id="line2d_13">
    <path d="M 367.764352 229.699197 
L 367.764352 44.2832 
" clip-path="url(#p67e90ed8f1)" style="fill: none; stroke: #002d9c; stroke-width: 2; stroke-linecap: square"/>
   </g>
   <g id="line2d_14">
    <path d="M 414.118352 368.761195 
L 414.118352 136.991198 
" clip-path="url(#p67e90ed8f1)" style="fill: none; stroke: #002d9c; stroke-width: 2; stroke-linecap: square"/>
   </g>
   <g id="line2d_15">
    <path d="M 506.826351 229.699197 
L 506.826351 44.2832 
" clip-path="url(#p67e90ed8f1)" style="fill: none; stroke: #002d9c; stroke-width: 2; stroke-linecap: square"/>
   </g>
   <g id="line2d_16">
    <path d="M 553.18035 368.761195 
L 553.18035 136.991198 
" clip-path="url(#p67e90ed8f1)" style="fill: none; stroke: #002d9c; stroke-width: 2; stroke-linecap: square"/>
   </g>
   <g id="line2d_17">
    <path d="M 599.534349 322.407196 
L 599.534349 44.2832 
" clip-path="url(#p67e90ed8f1)" style="fill: none; stroke: #002d9c; stroke-width: 2; stroke-linecap: square"/>
   </g>
   <g id="line2d_18">
    <path d="M 692.242348 322.407196 
L 692.242348 44.2832 
" clip-path="url(#p67e90ed8f1)" style="fill: none; stroke: #002d9c; stroke-width: 2; stroke-linecap: square"/>
   </g>
   <g id="line2d_19">
    <path d="M 738.596348 322.407196 
L 738.596348 90.637199 
" clip-path="url(#p67e90ed8f1)" style="fill: none; stroke: #002d9c; stroke-width: 2; stroke-linecap: square"/>
   </g>
   <g id="line2d_20">
    <path d="M 831.304346 322.407196 
L 831.304346 90.637199 
" clip-path="url(#p67e90ed8f1)" style="fill: none; stroke: #002d9c; stroke-width: 2; stroke-linecap: square"/>
   </g>
   <g id="line2d_21">
    <path d="M 877.658346 183.345198 
L 877.658346 90.637199 
" clip-path="url(#p67e90ed8f1)" style="fill: none; stroke: #002d9c; stroke-width: 2; stroke-linecap: square"/>
   </g>
   <g id="line2d_22">
    <path d="M 924.012345 322.407196 
L 924.012345 136.991198 
" clip-path="url(#p67e90ed8f1)" style="fill: none; stroke: #002d9c; stroke-width: 2; stroke-linecap: square"/>
   </g>
   <g id="line2d_23">
    <path d="M 1016.720344 183.345198 
L 1016.720344 90.637199 
" clip-path="url(#p67e90ed8f1)" style="fill: none; stroke: #002d9c; stroke-width: 2; stroke-linecap: square"/>
   </g>
   <g id="line2d_24">
    <path d="M 1063.074343 322.407196 
L 1063.074343 136.991198 
" clip-path="url(#p67e90ed8f1)" style="fill: none; stroke: #002d9c; stroke-width: 2; stroke-linecap: square"/>
   </g>
   <g id="line2d_25">
    <path d="M 1109.428343 276.053196 
L 1109.428343 136.991198 
" clip-path="url(#p67e90ed8f1)" style="fill: none; stroke: #002d9c; stroke-width: 2; stroke-linecap: square"/>
   </g>
   <g id="line2d_26">
    <path d="M 1155.782342 229.699197 
L 1155.782342 183.345198 
" clip-path="url(#p67e90ed8f1)" style="fill: none; stroke: #002d9c; stroke-width: 2; stroke-linecap: square"/>
   </g>
   <g id="line2d_27">
    <path d="M 1202.136341 368.761195 
L 1202.136341 183.345198 
" clip-path="url(#p67e90ed8f1)" style="fill: none; stroke: #002d9c; stroke-width: 2; stroke-linecap: square"/>
   </g>
   <g id="line2d_28">
    <path d="M 1248.490341 322.407196 
L 1248.490341 229.699197 
" clip-path="url(#p67e90ed8f1)" style="fill: none; stroke: #002d9c; stroke-width: 2; stroke-linecap: square"/>
   </g>
   <g id="line2d_29">
    <path d="M 1294.84434 276.053196 
L 1294.84434 183.345198 
" clip-path="url(#p67e90ed8f1)" style="fill: none; stroke: #002d9c; stroke-width: 2; stroke-linecap: square"/>
   </g>
   <g id="line2d_30">
    <path d="M 1341.19834 276.053196 
L 1341.19834 229.699197 
" clip-path="url(#p67e90ed8f1)" style="fill: none; stroke: #002d9c; stroke-width: 2; stroke-linecap: square"/>
   </g>
   <g id="line2d_31">
    <path d="M 1433.906338 276.053196 
L 1433.906338 229.699197 
" clip-path="url(#p67e90ed8f1)" style="fill: none; stroke: #002d9c; stroke-width: 2; stroke-linecap: square"/>
   </g>
   <g id="line2d_32">
    <path d="M 1480.260338 368.761195 
L 1480.260338 276.053196 
" clip-path="url(#p67e90ed8f1)" style="fill: none; stroke: #002d9c; stroke-width: 2; stroke-linecap: square"/>
   </g>
   <g id="line2d_33">
    <path d="M 1572.968336 368.761195 
L 1572.968336 276.053196 
" clip-path="url(#p67e90ed8f1)" style="fill: none; stroke: #002d9c; stroke-width: 2; stroke-linecap: square"/>
   </g>
   <g id="patch_3">
    <path d="M 74.575306 59.348249 
L 104.705406 59.348249 
L 104.705406 29.21815 
L 74.575306 29.21815 
z
" clip-path="url(#p67e90ed8f1)" style="fill: #fa4d56; stroke: #fa4d56; stroke-width: 1.5; stroke-linejoin: miter"/>
   </g>
   <g id="patch_4">
    <path d="M 74.575306 105.702249 
L 104.705406 105.702249 
L 104.705406 75.572149 
L 74.575306 75.572149 
z
" clip-path="url(#p67e90ed8f1)" style="fill: #fa4d56; stroke: #fa4d56; stroke-width: 1.5; stroke-linejoin: miter"/>
   </g>
   <g id="patch_5">
    <path d="M 74.575306 152.056248 
L 104.705406 152.056248 
L 104.705406 121.926148 
L 74.575306 121.926148 
z
" clip-path="url(#p67e90ed8f1)" style="fill: #fa4d56; stroke: #fa4d56; stroke-width: 1.5; stroke-linejoin: miter"/>
   </g>
   <g id="patch_6">
    <path d="M 74.575306 198.410247 
L 104.705406 198.410247 
L 104.705406 168.280148 
L 74.575306 168.280148 
z
" clip-path="url(#p67e90ed8f1)" style="fill: #fa4d56; stroke: #fa4d56; stroke-width: 1.5; stroke-linejoin: miter"/>
   </g>
   <g id="patch_7">
    <path d="M 74.575306 244.764247 
L 104.705406 244.764247 
L 104.705406 214.634147 
L 74.575306 214.634147 
z
" clip-path="url(#p67e90ed8f1)" style="fill: #fa4d56; stroke: #fa4d56; stroke-width: 1.5; stroke-linejoin: miter"/>
   </g>
   <g id="patch_8">
    <path d="M 74.575306 291.118246 
L 104.705406 291.118246 
L 104.705406 260.988147 
L 74.575306 260.988147 
z
" clip-path="url(#p67e90ed8f1)" style="fill: #fa4d56; stroke: #fa4d56; stroke-width: 1.5; stroke-linejoin: miter"/>
   </g>
   <g id="patch_9">
    <path d="M 74.575306 337.472246 
L 104.705406 337.472246 
L 104.705406 307.342146 
L 74.575306 307.342146 
z
" clip-path="url(#p67e90ed8f1)" style="fill: #fa4d56; stroke: #fa4d56; stroke-width: 1.5; stroke-linejoin: miter"/>
   </g>
   <g id="patch_10">
    <path d="M 74.575306 383.826245 
L 104.705406 383.826245 
L 104.705406 353.696145 
L 74.575306 353.696145 
z
" clip-path="url(#p67e90ed8f1)" style="fill: #fa4d56; stroke: #fa4d56; stroke-width: 1.5; stroke-linejoin: miter"/>
   </g>
   <g id="patch_11">
    <path d="M 120.929306 105.702249 
L 151.059405 105.702249 
L 151.059405 75.572149 
L 120.929306 75.572149 
z
" clip-path="url(#p67e90ed8f1)" style="fill: #9f1853; stroke: #9f1853; stroke-width: 1.5; stroke-linejoin: miter"/>
   </g>
   <g id="patch_12">
    <path d="M 120.929306 152.056248 
L 151.059405 152.056248 
L 151.059405 121.926148 
L 120.929306 121.926148 
z
" clip-path="url(#p67e90ed8f1)" style="fill: #9f1853; stroke: #9f1853; stroke-width: 1.5; stroke-linejoin: miter"/>
   </g>
   <g id="patch_13">
    <path d="M 120.929306 291.118246 
L 151.059405 291.118246 
L 151.059405 260.988147 
L 120.929306 260.988147 
z
" clip-path="url(#p67e90ed8f1)" style="fill: #9f1853; stroke: #9f1853; stroke-width: 1.5; stroke-linejoin: miter"/>
   </g>
   <g id="patch_14">
    <path d="M 182.348355 48.802714 
C 183.546944 48.802714 184.696604 48.32651 185.544135 47.478979 
C 186.391665 46.631448 186.86787 45.481789 186.86787 44.2832 
C 186.86787 43.08461 186.391665 41.934951 185.544135 41.08742 
C 184.696604 40.239889 183.546944 39.763685 182.348355 39.763685 
C 181.149766 39.763685 180.000106 40.239889 179.152575 41.08742 
C 178.305045 41.934951 177.82884 43.08461 177.82884 44.2832 
C 177.82884 45.481789 178.305045 46.631448 179.152575 47.478979 
C 180.000106 48.32651 181.149766 48.802714 182.348355 48.802714 
z
" clip-path="url(#p67e90ed8f1)" style="fill: #002d9c; stroke: #002d9c; stroke-width: 1.5; stroke-linejoin: miter"/>
   </g>
   <g id="patch_15">
    <path d="M 182.348355 101.182734 
C 185.145063 101.182734 187.827603 100.07159 189.805174 98.094018 
C 191.782746 96.116447 192.89389 93.433907 192.89389 90.637199 
C 192.89389 87.84049 191.782746 85.157951 189.805174 83.18038 
C 187.827603 81.202808 185.145063 80.091664 182.348355 80.091664 
C 179.551646 80.091664 176.869107 81.202808 174.891536 83.18038 
C 172.913964 85.157951 171.80282 87.84049 171.80282 90.637199 
C 171.80282 93.433907 172.913964 96.116447 174.891536 98.094018 
C 176.869107 100.07159 179.551646 101.182734 182.348355 101.182734 
z
" clip-path="url(#p67e90ed8f1)" style="fill: #002d9c; stroke: #002d9c; stroke-width: 2; stroke-linejoin: miter"/>
   </g>
   <g id="patch_16">
    <path d="M 228.702354 48.802714 
C 229.900944 48.802714 231.050603 48.32651 231.898134 47.478979 
C 232.745665 46.631448 233.221869 45.481789 233.221869 44.2832 
C 233.221869 43.08461 232.745665 41.934951 231.898134 41.08742 
C 231.050603 40.239889 229.900944 39.763685 228.702354 39.763685 
C 227.503765 39.763685 226.354105 40.239889 225.506575 41.08742 
C 224.659044 41.934951 224.182839 43.08461 224.182839 44.2832 
C 224.182839 45.481789 224.659044 46.631448 225.506575 47.478979 
C 226.354105 48.32651 227.503765 48.802714 228.702354 48.802714 
z
" clip-path="url(#p67e90ed8f1)" style="fill: #002d9c; stroke: #002d9c; stroke-width: 1.5; stroke-linejoin: miter"/>
   </g>
   <g id="patch_17">
    <path d="M 228.702354 379.30673 
C 231.499063 379.30673 234.181602 378.195586 236.159173 376.218014 
C 238.136745 374.240443 239.247889 371.557904 239.247889 368.761195 
C 239.247889 365.964487 238.136745 363.281948 236.159173 361.304376 
C 234.181602 359.326804 231.499063 358.21566 228.702354 358.21566 
C 225.905646 358.21566 223.223107 359.326804 221.245535 361.304376 
C 219.267964 363.281948 218.156819 365.964487 218.156819 368.761195 
C 218.156819 371.557904 219.267964 374.240443 221.245535 376.218014 
C 223.223107 378.195586 225.905646 379.30673 228.702354 379.30673 
z
" clip-path="url(#p67e90ed8f1)" style="fill: #002d9c; stroke: #002d9c; stroke-width: 2; stroke-linejoin: miter"/>
   </g>
   <g id="patch_18">
    <path d="M 275.056354 95.156714 
C 276.254943 95.156714 277.404603 94.680509 278.252133 93.832979 
C 279.099664 92.985448 279.575869 91.835788 279.575869 90.637199 
C 279.575869 89.43861 279.099664 88.28895 278.252133 87.441419 
C 277.404603 86.593889 276.254943 86.117684 275.056354 86.117684 
C 273.857764 86.117684 272.708105 86.593889 271.860574 87.441419 
C 271.013043 88.28895 270.536839 89.43861 270.536839 90.637199 
C 270.536839 91.835788 271.013043 92.985448 271.860574 93.832979 
C 272.708105 94.680509 273.857764 95.156714 275.056354 95.156714 
z
" clip-path="url(#p67e90ed8f1)" style="fill: #002d9c; stroke: #002d9c; stroke-width: 1.5; stroke-linejoin: miter"/>
   </g>
   <g id="patch_19">
    <path d="M 275.056354 147.536733 
C 277.853062 147.536733 280.535601 146.425589 282.513173 144.448017 
C 284.490744 142.470446 285.601889 139.787907 285.601889 136.991198 
C 285.601889 134.19449 284.490744 131.511951 282.513173 129.534379 
C 280.535601 127.556807 277.853062 126.445663 275.056354 126.445663 
C 272.259645 126.445663 269.577106 127.556807 267.599534 129.534379 
C 265.621963 131.511951 264.510819 134.19449 264.510819 136.991198 
C 264.510819 139.787907 265.621963 142.470446 267.599534 144.448017 
C 269.577106 146.425589 272.259645 147.536733 275.056354 147.536733 
z
" clip-path="url(#p67e90ed8f1)" style="fill: #002d9c; stroke: #002d9c; stroke-width: 2; stroke-linejoin: miter"/>
   </g>
   <g id="patch_20">
    <path d="M 259.991304 383.826245 
L 290.121403 383.826245 
L 290.121403 353.696145 
L 259.991304 353.696145 
z
" clip-path="url(#p67e90ed8f1)" style="fill: #9f1853; stroke: #9f1853; stroke-width: 1.5; stroke-linejoin: miter"/>
   </g>
   <g id="patch_21">
    <path d="M 321.410353 48.802714 
C 322.608942 48.802714 323.758602 48.32651 324.606133 47.478979 
C 325.453663 46.631448 325.929868 45.481789 325.929868 44.2832 
C 325.929868 43.08461 325.453663 41.934951 324.606133 41.08742 
C 323.758602 40.239889 322.608942 39.763685 321.410353 39.763685 
C 320.211764 39.763685 319.062104 40.239889 318.214573 41.08742 
C 317.367043 41.934951 316.890838 43.08461 316.890838 44.2832 
C 316.890838 45.481789 317.367043 46.631448 318.214573 47.478979 
C 319.062104 48.32651 320.211764 48.802714 321.410353 48.802714 
z
" clip-path="url(#p67e90ed8f1)" style="fill: #002d9c; stroke: #002d9c; stroke-width: 1.5; stroke-linejoin: miter"/>
   </g>
   <g id="patch_22">
    <path d="M 321.410353 379.30673 
C 324.207062 379.30673 326.889601 378.195586 328.867172 376.218014 
C 330.844744 374.240443 331.955888 371.557904 331.955888 368.761195 
C 331.955888 365.964487 330.844744 363.281948 328.867172 361.304376 
C 326.889601 359.326804 324.207062 358.21566 321.410353 358.21566 
C 318.613645 358.21566 315.931105 359.326804 313.953534 361.304376 
C 311.975962 363.281948 310.864818 365.964487 310.864818 368.761195 
C 310.864818 371.557904 311.975962 374.240443 313.953534 376.218014 
C 315.931105 378.195586 318.613645 379.30673 321.410353 379.30673 
z
" clip-path="url(#p67e90ed8f1)" style="fill: #002d9c; stroke: #002d9c; stroke-width: 2; stroke-linejoin: miter"/>
   </g>
   <g id="patch_23">
    <path d="M 367.764352 48.802714 
C 368.962942 48.802714 370.112601 48.32651 370.960132 47.478979 
C 371.807663 46.631448 372.283867 45.481789 372.283867 44.2832 
C 372.283867 43.08461 371.807663 41.934951 370.960132 41.08742 
C 370.112601 40.239889 368.962942 39.763685 367.764352 39.763685 
C 366.565763 39.763685 365.416103 40.239889 364.568573 41.08742 
C 363.721042 41.934951 363.244837 43.08461 363.244837 44.2832 
C 363.244837 45.481789 363.721042 46.631448 364.568573 47.478979 
C 365.416103 48.32651 366.565763 48.802714 367.764352 48.802714 
z
" clip-path="url(#p67e90ed8f1)" style="fill: #002d9c; stroke: #002d9c; stroke-width: 1.5; stroke-linejoin: miter"/>
   </g>
   <g id="patch_24">
    <path d="M 367.764352 240.244732 
C 370.561061 240.244732 373.2436 239.133588 375.221172 237.156016 
C 377.198743 235.178445 378.309887 232.495906 378.309887 229.699197 
C 378.309887 226.902489 377.198743 224.219949 375.221172 222.242378 
C 373.2436 220.264806 370.561061 219.153662 367.764352 219.153662 
C 364.967644 219.153662 362.285105 220.264806 360.307533 222.242378 
C 358.329962 224.219949 357.218818 226.902489 357.218818 229.699197 
C 357.218818 232.495906 358.329962 235.178445 360.307533 237.156016 
C 362.285105 239.133588 364.967644 240.244732 367.764352 240.244732 
z
" clip-path="url(#p67e90ed8f1)" style="fill: #002d9c; stroke: #002d9c; stroke-width: 2; stroke-linejoin: miter"/>
   </g>
   <g id="patch_25">
    <path d="M 414.118352 141.510713 
C 415.316941 141.510713 416.466601 141.034509 417.314131 140.186978 
C 418.161662 139.339447 418.637867 138.189788 418.637867 136.991198 
C 418.637867 135.792609 418.161662 134.642949 417.314131 133.795419 
C 416.466601 132.947888 415.316941 132.471683 414.118352 132.471683 
C 412.919762 132.471683 411.770103 132.947888 410.922572 133.795419 
C 410.075041 134.642949 409.598837 135.792609 409.598837 136.991198 
C 409.598837 138.189788 410.075041 139.339447 410.922572 140.186978 
C 411.770103 141.034509 412.919762 141.510713 414.118352 141.510713 
z
" clip-path="url(#p67e90ed8f1)" style="fill: #002d9c; stroke: #002d9c; stroke-width: 1.5; stroke-linejoin: miter"/>
   </g>
   <g id="patch_26">
    <path d="M 414.118352 379.30673 
C 416.91506 379.30673 419.597599 378.195586 421.575171 376.218014 
C 423.552743 374.240443 424.663887 371.557904 424.663887 368.761195 
C 424.663887 365.964487 423.552743 363.281948 421.575171 361.304376 
C 419.597599 359.326804 416.91506 358.21566 414.118352 358.21566 
C 411.321643 358.21566 408.639104 359.326804 406.661533 361.304376 
C 404.683961 363.281948 403.572817 365.964487 403.572817 368.761195 
C 403.572817 371.557904 404.683961 374.240443 406.661533 376.218014 
C 408.639104 378.195586 411.321643 379.30673 414.118352 379.30673 
z
" clip-path="url(#p67e90ed8f1)" style="fill: #002d9c; stroke: #002d9c; stroke-width: 2; stroke-linejoin: miter"/>
   </g>
   <g id="patch_27">
    <path d="M 445.407301 244.764247 
L 475.537401 244.764247 
L 475.537401 214.634147 
L 445.407301 214.634147 
z
" clip-path="url(#p67e90ed8f1)" style="fill: #9f1853; stroke: #9f1853; stroke-width: 1.5; stroke-linejoin: miter"/>
   </g>
   <g id="patch_28">
    <path d="M 445.407301 383.826245 
L 475.537401 383.826245 
L 475.537401 353.696145 
L 445.407301 353.696145 
z
" clip-path="url(#p67e90ed8f1)" style="fill: #9f1853; stroke: #9f1853; stroke-width: 1.5; stroke-linejoin: miter"/>
   </g>
   <g id="patch_29">
    <path d="M 506.826351 48.802714 
C 508.02494 48.802714 509.1746 48.32651 510.02213 47.478979 
C 510.869661 46.631448 511.345866 45.481789 511.345866 44.2832 
C 511.345866 43.08461 510.869661 41.934951 510.02213 41.08742 
C 509.1746 40.239889 508.02494 39.763685 506.826351 39.763685 
C 505.627761 39.763685 504.478102 40.239889 503.630571 41.08742 
C 502.78304 41.934951 502.306836 43.08461 502.306836 44.2832 
C 502.306836 45.481789 502.78304 46.631448 503.630571 47.478979 
C 504.478102 48.32651 505.627761 48.802714 506.826351 48.802714 
z
" clip-path="url(#p67e90ed8f1)" style="fill: #002d9c; stroke: #002d9c; stroke-width: 1.5; stroke-linejoin: miter"/>
   </g>
   <g id="patch_30">
    <path d="M 506.826351 240.244732 
C 509.623059 240.244732 512.305598 239.133588 514.28317 237.156016 
C 516.260741 235.178445 517.371885 232.495906 517.371885 229.699197 
C 517.371885 226.902489 516.260741 224.219949 514.28317 222.242378 
C 512.305598 220.264806 509.623059 219.153662 506.826351 219.153662 
C 504.029642 219.153662 501.347103 220.264806 499.369531 222.242378 
C 497.39196 224.219949 496.280816 226.902489 496.280816 229.699197 
C 496.280816 232.495906 497.39196 235.178445 499.369531 237.156016 
C 501.347103 239.133588 504.029642 240.244732 506.826351 240.244732 
z
" clip-path="url(#p67e90ed8f1)" style="fill: #002d9c; stroke: #002d9c; stroke-width: 2; stroke-linejoin: miter"/>
   </g>
   <g id="patch_31">
    <path d="M 553.18035 141.510713 
C 554.378939 141.510713 555.528599 141.034509 556.37613 140.186978 
C 557.22366 139.339447 557.699865 138.189788 557.699865 136.991198 
C 557.699865 135.792609 557.22366 134.642949 556.37613 133.795419 
C 555.528599 132.947888 554.378939 132.471683 553.18035 132.471683 
C 551.981761 132.471683 550.832101 132.947888 549.98457 133.795419 
C 549.13704 134.642949 548.660835 135.792609 548.660835 136.991198 
C 548.660835 138.189788 549.13704 139.339447 549.98457 140.186978 
C 550.832101 141.034509 551.981761 141.510713 553.18035 141.510713 
z
" clip-path="url(#p67e90ed8f1)" style="fill: #002d9c; stroke: #002d9c; stroke-width: 1.5; stroke-linejoin: miter"/>
   </g>
   <g id="patch_32">
    <path d="M 553.18035 379.30673 
C 555.977059 379.30673 558.659598 378.195586 560.637169 376.218014 
C 562.614741 374.240443 563.725885 371.557904 563.725885 368.761195 
C 563.725885 365.964487 562.614741 363.281948 560.637169 361.304376 
C 558.659598 359.326804 555.977059 358.21566 553.18035 358.21566 
C 550.383641 358.21566 547.701102 359.326804 545.723531 361.304376 
C 543.745959 363.281948 542.634815 365.964487 542.634815 368.761195 
C 542.634815 371.557904 543.745959 374.240443 545.723531 376.218014 
C 547.701102 378.195586 550.383641 379.30673 553.18035 379.30673 
z
" clip-path="url(#p67e90ed8f1)" style="fill: #002d9c; stroke: #002d9c; stroke-width: 2; stroke-linejoin: miter"/>
   </g>
   <g id="patch_33">
    <path d="M 599.534349 48.802714 
C 600.732939 48.802714 601.882598 48.32651 602.730129 47.478979 
C 603.57766 46.631448 604.053864 45.481789 604.053864 44.2832 
C 604.053864 43.08461 603.57766 41.934951 602.730129 41.08742 
C 601.882598 40.239889 600.732939 39.763685 599.534349 39.763685 
C 598.33576 39.763685 597.1861 40.239889 596.33857 41.08742 
C 595.491039 41.934951 595.014834 43.08461 595.014834 44.2832 
C 595.014834 45.481789 595.491039 46.631448 596.33857 47.478979 
C 597.1861 48.32651 598.33576 48.802714 599.534349 48.802714 
z
" clip-path="url(#p67e90ed8f1)" style="fill: #002d9c; stroke: #002d9c; stroke-width: 1.5; stroke-linejoin: miter"/>
   </g>
   <g id="patch_34">
    <path d="M 599.534349 332.952731 
C 602.331058 332.952731 605.013597 331.841587 606.991169 329.864015 
C 608.96874 327.886443 610.079884 325.203904 610.079884 322.407196 
C 610.079884 319.610487 608.96874 316.927948 606.991169 314.950377 
C 605.013597 312.972805 602.331058 311.861661 599.534349 311.861661 
C 596.737641 311.861661 594.055102 312.972805 592.07753 314.950377 
C 590.099959 316.927948 588.988814 319.610487 588.988814 322.407196 
C 588.988814 325.203904 590.099959 327.886443 592.07753 329.864015 
C 594.055102 331.841587 596.737641 332.952731 599.534349 332.952731 
z
" clip-path="url(#p67e90ed8f1)" style="fill: #002d9c; stroke: #002d9c; stroke-width: 2; stroke-linejoin: miter"/>
   </g>
   <g id="patch_35">
    <path d="M 584.4693 383.826245 
L 614.599399 383.826245 
L 614.599399 353.696145 
L 584.4693 353.696145 
z
" clip-path="url(#p67e90ed8f1)" style="fill: #9f1853; stroke: #9f1853; stroke-width: 1.5; stroke-linejoin: miter"/>
   </g>
   <g id="patch_36">
    <path d="M 630.823299 244.764247 
L 660.953399 244.764247 
L 660.953399 214.634147 
L 630.823299 214.634147 
z
" clip-path="url(#p67e90ed8f1)" style="fill: #9f1853; stroke: #9f1853; stroke-width: 1.5; stroke-linejoin: miter"/>
   </g>
   <g id="patch_37">
    <path d="M 630.823299 337.472246 
L 660.953399 337.472246 
L 660.953399 307.342146 
L 630.823299 307.342146 
z
" clip-path="url(#p67e90ed8f1)" style="fill: #9f1853; stroke: #9f1853; stroke-width: 1.5; stroke-linejoin: miter"/>
   </g>
   <g id="patch_38">
    <path d="M 692.242348 48.802714 
C 693.440937 48.802714 694.590597 48.32651 695.438128 47.478979 
C 696.285658 46.631448 696.761863 45.481789 696.761863 44.2832 
C 696.761863 43.08461 696.285658 41.934951 695.438128 41.08742 
C 694.590597 40.239889 693.440937 39.763685 692.242348 39.763685 
C 691.043759 39.763685 689.894099 40.239889 689.046568 41.08742 
C 688.199038 41.934951 687.722833 43.08461 687.722833 44.2832 
C 687.722833 45.481789 688.199038 46.631448 689.046568 47.478979 
C 689.894099 48.32651 691.043759 48.802714 692.242348 48.802714 
z
" clip-path="url(#p67e90ed8f1)" style="fill: #002d9c; stroke: #002d9c; stroke-width: 1.5; stroke-linejoin: miter"/>
   </g>
   <g id="patch_39">
    <path d="M 692.242348 332.952731 
C 695.039057 332.952731 697.721596 331.841587 699.699167 329.864015 
C 701.676739 327.886443 702.787883 325.203904 702.787883 322.407196 
C 702.787883 319.610487 701.676739 316.927948 699.699167 314.950377 
C 697.721596 312.972805 695.039057 311.861661 692.242348 311.861661 
C 689.44564 311.861661 686.7631 312.972805 684.785529 314.950377 
C 682.807957 316.927948 681.696813 319.610487 681.696813 322.407196 
C 681.696813 325.203904 682.807957 327.886443 684.785529 329.864015 
C 686.7631 331.841587 689.44564 332.952731 692.242348 332.952731 
z
" clip-path="url(#p67e90ed8f1)" style="fill: #002d9c; stroke: #002d9c; stroke-width: 2; stroke-linejoin: miter"/>
   </g>
   <g id="patch_40">
    <path d="M 738.596348 95.156714 
C 739.794937 95.156714 740.944596 94.680509 741.792127 93.832979 
C 742.639658 92.985448 743.115862 91.835788 743.115862 90.637199 
C 743.115862 89.43861 742.639658 88.28895 741.792127 87.441419 
C 740.944596 86.593889 739.794937 86.117684 738.596348 86.117684 
C 737.397758 86.117684 736.248099 86.593889 735.400568 87.441419 
C 734.553037 88.28895 734.076833 89.43861 734.076833 90.637199 
C 734.076833 91.835788 734.553037 92.985448 735.400568 93.832979 
C 736.248099 94.680509 737.397758 95.156714 738.596348 95.156714 
z
" clip-path="url(#p67e90ed8f1)" style="fill: #002d9c; stroke: #002d9c; stroke-width: 1.5; stroke-linejoin: miter"/>
   </g>
   <g id="patch_41">
    <path d="M 738.596348 332.952731 
C 741.393056 332.952731 744.075595 331.841587 746.053167 329.864015 
C 748.030738 327.886443 749.141882 325.203904 749.141882 322.407196 
C 749.141882 319.610487 748.030738 316.927948 746.053167 314.950377 
C 744.075595 312.972805 741.393056 311.861661 738.596348 311.861661 
C 735.799639 311.861661 733.1171 312.972805 731.139528 314.950377 
C 729.161957 316.927948 728.050813 319.610487 728.050813 322.407196 
C 728.050813 325.203904 729.161957 327.886443 731.139528 329.864015 
C 733.1171 331.841587 735.799639 332.952731 738.596348 332.952731 
z
" clip-path="url(#p67e90ed8f1)" style="fill: #002d9c; stroke: #002d9c; stroke-width: 2; stroke-linejoin: miter"/>
   </g>
   <g id="patch_42">
    <path d="M 769.885297 337.472246 
L 800.015397 337.472246 
L 800.015397 307.342146 
L 769.885297 307.342146 
z
" clip-path="url(#p67e90ed8f1)" style="fill: #9f1853; stroke: #9f1853; stroke-width: 1.5; stroke-linejoin: miter"/>
   </g>
   <g id="patch_43">
    <path d="M 831.304346 95.156714 
C 832.502936 95.156714 833.652595 94.680509 834.500126 93.832979 
C 835.347657 92.985448 835.823861 91.835788 835.823861 90.637199 
C 835.823861 89.43861 835.347657 88.28895 834.500126 87.441419 
C 833.652595 86.593889 832.502936 86.117684 831.304346 86.117684 
C 830.105757 86.117684 828.956097 86.593889 828.108567 87.441419 
C 827.261036 88.28895 826.784831 89.43861 826.784831 90.637199 
C 826.784831 91.835788 827.261036 92.985448 828.108567 93.832979 
C 828.956097 94.680509 830.105757 95.156714 831.304346 95.156714 
z
" clip-path="url(#p67e90ed8f1)" style="fill: #002d9c; stroke: #002d9c; stroke-width: 1.5; stroke-linejoin: miter"/>
   </g>
   <g id="patch_44">
    <path d="M 831.304346 332.952731 
C 834.101055 332.952731 836.783594 331.841587 838.761165 329.864015 
C 840.738737 327.886443 841.849881 325.203904 841.849881 322.407196 
C 841.849881 319.610487 840.738737 316.927948 838.761165 314.950377 
C 836.783594 312.972805 834.101055 311.861661 831.304346 311.861661 
C 828.507638 311.861661 825.825099 312.972805 823.847527 314.950377 
C 821.869955 316.927948 820.758811 319.610487 820.758811 322.407196 
C 820.758811 325.203904 821.869955 327.886443 823.847527 329.864015 
C 825.825099 331.841587 828.507638 332.952731 831.304346 332.952731 
z
" clip-path="url(#p67e90ed8f1)" style="fill: #002d9c; stroke: #002d9c; stroke-width: 2; stroke-linejoin: miter"/>
   </g>
   <g id="patch_45">
    <path d="M 877.658346 95.156714 
C 878.856935 95.156714 880.006595 94.680509 880.854125 93.832979 
C 881.701656 92.985448 882.177861 91.835788 882.177861 90.637199 
C 882.177861 89.43861 881.701656 88.28895 880.854125 87.441419 
C 880.006595 86.593889 878.856935 86.117684 877.658346 86.117684 
C 876.459756 86.117684 875.310097 86.593889 874.462566 87.441419 
C 873.615035 88.28895 873.138831 89.43861 873.138831 90.637199 
C 873.138831 91.835788 873.615035 92.985448 874.462566 93.832979 
C 875.310097 94.680509 876.459756 95.156714 877.658346 95.156714 
z
" clip-path="url(#p67e90ed8f1)" style="fill: #002d9c; stroke: #002d9c; stroke-width: 1.5; stroke-linejoin: miter"/>
   </g>
   <g id="patch_46">
    <path d="M 877.658346 193.890733 
C 880.455054 193.890733 883.137593 192.779588 885.115165 190.802017 
C 887.092736 188.824445 888.203881 186.141906 888.203881 183.345198 
C 888.203881 180.548489 887.092736 177.86595 885.115165 175.888378 
C 883.137593 173.910807 880.455054 172.799663 877.658346 172.799663 
C 874.861637 172.799663 872.179098 173.910807 870.201526 175.888378 
C 868.223955 177.86595 867.112811 180.548489 867.112811 183.345198 
C 867.112811 186.141906 868.223955 188.824445 870.201526 190.802017 
C 872.179098 192.779588 874.861637 193.890733 877.658346 193.890733 
z
" clip-path="url(#p67e90ed8f1)" style="fill: #002d9c; stroke: #002d9c; stroke-width: 2; stroke-linejoin: miter"/>
   </g>
   <g id="patch_47">
    <path d="M 924.012345 141.510713 
C 925.210934 141.510713 926.360594 141.034509 927.208125 140.186978 
C 928.055655 139.339447 928.53186 138.189788 928.53186 136.991198 
C 928.53186 135.792609 928.055655 134.642949 927.208125 133.795419 
C 926.360594 132.947888 925.210934 132.471683 924.012345 132.471683 
C 922.813756 132.471683 921.664096 132.947888 920.816565 133.795419 
C 919.969035 134.642949 919.49283 135.792609 919.49283 136.991198 
C 919.49283 138.189788 919.969035 139.339447 920.816565 140.186978 
C 921.664096 141.034509 922.813756 141.510713 924.012345 141.510713 
z
" clip-path="url(#p67e90ed8f1)" style="fill: #002d9c; stroke: #002d9c; stroke-width: 1.5; stroke-linejoin: miter"/>
   </g>
   <g id="patch_48">
    <path d="M 924.012345 332.952731 
C 926.809054 332.952731 929.491593 331.841587 931.469164 329.864015 
C 933.446736 327.886443 934.55788 325.203904 934.55788 322.407196 
C 934.55788 319.610487 933.446736 316.927948 931.469164 314.950377 
C 929.491593 312.972805 926.809054 311.861661 924.012345 311.861661 
C 921.215637 311.861661 918.533097 312.972805 916.555526 314.950377 
C 914.577954 316.927948 913.46681 319.610487 913.46681 322.407196 
C 913.46681 325.203904 914.577954 327.886443 916.555526 329.864015 
C 918.533097 331.841587 921.215637 332.952731 924.012345 332.952731 
z
" clip-path="url(#p67e90ed8f1)" style="fill: #002d9c; stroke: #002d9c; stroke-width: 2; stroke-linejoin: miter"/>
   </g>
   <g id="patch_49">
    <path d="M 955.301295 198.410247 
L 985.431394 198.410247 
L 985.431394 168.280148 
L 955.301295 168.280148 
z
" clip-path="url(#p67e90ed8f1)" style="fill: #9f1853; stroke: #9f1853; stroke-width: 1.5; stroke-linejoin: miter"/>
   </g>
   <g id="patch_50">
    <path d="M 955.301295 337.472246 
L 985.431394 337.472246 
L 985.431394 307.342146 
L 955.301295 307.342146 
z
" clip-path="url(#p67e90ed8f1)" style="fill: #9f1853; stroke: #9f1853; stroke-width: 1.5; stroke-linejoin: miter"/>
   </g>
   <g id="patch_51">
    <path d="M 1016.720344 95.156714 
C 1017.918933 95.156714 1019.068593 94.680509 1019.916123 93.832979 
C 1020.763654 92.985448 1021.239859 91.835788 1021.239859 90.637199 
C 1021.239859 89.43861 1020.763654 88.28895 1019.916123 87.441419 
C 1019.068593 86.593889 1017.918933 86.117684 1016.720344 86.117684 
C 1015.521754 86.117684 1014.372095 86.593889 1013.524564 87.441419 
C 1012.677033 88.28895 1012.200829 89.43861 1012.200829 90.637199 
C 1012.200829 91.835788 1012.677033 92.985448 1013.524564 93.832979 
C 1014.372095 94.680509 1015.521754 95.156714 1016.720344 95.156714 
z
" clip-path="url(#p67e90ed8f1)" style="fill: #002d9c; stroke: #002d9c; stroke-width: 1.5; stroke-linejoin: miter"/>
   </g>
   <g id="patch_52">
    <path d="M 1016.720344 193.890733 
C 1019.517052 193.890733 1022.199591 192.779588 1024.177163 190.802017 
C 1026.154735 188.824445 1027.265879 186.141906 1027.265879 183.345198 
C 1027.265879 180.548489 1026.154735 177.86595 1024.177163 175.888378 
C 1022.199591 173.910807 1019.517052 172.799663 1016.720344 172.799663 
C 1013.923635 172.799663 1011.241096 173.910807 1009.263525 175.888378 
C 1007.285953 177.86595 1006.174809 180.548489 1006.174809 183.345198 
C 1006.174809 186.141906 1007.285953 188.824445 1009.263525 190.802017 
C 1011.241096 192.779588 1013.923635 193.890733 1016.720344 193.890733 
z
" clip-path="url(#p67e90ed8f1)" style="fill: #002d9c; stroke: #002d9c; stroke-width: 2; stroke-linejoin: miter"/>
   </g>
   <g id="patch_53">
    <path d="M 1063.074343 141.510713 
C 1064.272933 141.510713 1065.422592 141.034509 1066.270123 140.186978 
C 1067.117654 139.339447 1067.593858 138.189788 1067.593858 136.991198 
C 1067.593858 135.792609 1067.117654 134.642949 1066.270123 133.795419 
C 1065.422592 132.947888 1064.272933 132.471683 1063.074343 132.471683 
C 1061.875754 132.471683 1060.726094 132.947888 1059.878564 133.795419 
C 1059.031033 134.642949 1058.554828 135.792609 1058.554828 136.991198 
C 1058.554828 138.189788 1059.031033 139.339447 1059.878564 140.186978 
C 1060.726094 141.034509 1061.875754 141.510713 1063.074343 141.510713 
z
" clip-path="url(#p67e90ed8f1)" style="fill: #002d9c; stroke: #002d9c; stroke-width: 1.5; stroke-linejoin: miter"/>
   </g>
   <g id="patch_54">
    <path d="M 1063.074343 332.952731 
C 1065.871052 332.952731 1068.553591 331.841587 1070.531162 329.864015 
C 1072.508734 327.886443 1073.619878 325.203904 1073.619878 322.407196 
C 1073.619878 319.610487 1072.508734 316.927948 1070.531162 314.950377 
C 1068.553591 312.972805 1065.871052 311.861661 1063.074343 311.861661 
C 1060.277635 311.861661 1057.595096 312.972805 1055.617524 314.950377 
C 1053.639952 316.927948 1052.528808 319.610487 1052.528808 322.407196 
C 1052.528808 325.203904 1053.639952 327.886443 1055.617524 329.864015 
C 1057.595096 331.841587 1060.277635 332.952731 1063.074343 332.952731 
z
" clip-path="url(#p67e90ed8f1)" style="fill: #002d9c; stroke: #002d9c; stroke-width: 2; stroke-linejoin: miter"/>
   </g>
   <g id="patch_55">
    <path d="M 1109.428343 141.510713 
C 1110.626932 141.510713 1111.776592 141.034509 1112.624122 140.186978 
C 1113.471653 139.339447 1113.947858 138.189788 1113.947858 136.991198 
C 1113.947858 135.792609 1113.471653 134.642949 1112.624122 133.795419 
C 1111.776592 132.947888 1110.626932 132.471683 1109.428343 132.471683 
C 1108.229753 132.471683 1107.080094 132.947888 1106.232563 133.795419 
C 1105.385032 134.642949 1104.908828 135.792609 1104.908828 136.991198 
C 1104.908828 138.189788 1105.385032 139.339447 1106.232563 140.186978 
C 1107.080094 141.034509 1108.229753 141.510713 1109.428343 141.510713 
z
" clip-path="url(#p67e90ed8f1)" style="fill: #002d9c; stroke: #002d9c; stroke-width: 1.5; stroke-linejoin: miter"/>
   </g>
   <g id="patch_56">
    <path d="M 1109.428343 286.598731 
C 1112.225051 286.598731 1114.90759 285.487587 1116.885162 283.510016 
C 1118.862733 281.532444 1119.973877 278.849905 1119.973877 276.053196 
C 1119.973877 273.256488 1118.862733 270.573949 1116.885162 268.596377 
C 1114.90759 266.618806 1112.225051 265.507662 1109.428343 265.507662 
C 1106.631634 265.507662 1103.949095 266.618806 1101.971523 268.596377 
C 1099.993952 270.573949 1098.882808 273.256488 1098.882808 276.053196 
C 1098.882808 278.849905 1099.993952 281.532444 1101.971523 283.510016 
C 1103.949095 285.487587 1106.631634 286.598731 1109.428343 286.598731 
z
" clip-path="url(#p67e90ed8f1)" style="fill: #002d9c; stroke: #002d9c; stroke-width: 2; stroke-linejoin: miter"/>
   </g>
   <g id="patch_57">
    <path d="M 1094.363293 337.472246 
L 1124.493392 337.472246 
L 1124.493392 307.342146 
L 1094.363293 307.342146 
z
" clip-path="url(#p67e90ed8f1)" style="fill: #9f1853; stroke: #9f1853; stroke-width: 1.5; stroke-linejoin: miter"/>
   </g>
   <g id="patch_58">
    <path d="M 1155.782342 187.864713 
C 1156.980931 187.864713 1158.130591 187.388508 1158.978122 186.540977 
C 1159.825652 185.693447 1160.301857 184.543787 1160.301857 183.345198 
C 1160.301857 182.146608 1159.825652 180.996949 1158.978122 180.149418 
C 1158.130591 179.301887 1156.980931 178.825683 1155.782342 178.825683 
C 1154.583753 178.825683 1153.434093 179.301887 1152.586562 180.149418 
C 1151.739032 180.996949 1151.262827 182.146608 1151.262827 183.345198 
C 1151.262827 184.543787 1151.739032 185.693447 1152.586562 186.540977 
C 1153.434093 187.388508 1154.583753 187.864713 1155.782342 187.864713 
z
" clip-path="url(#p67e90ed8f1)" style="fill: #002d9c; stroke: #002d9c; stroke-width: 1.5; stroke-linejoin: miter"/>
   </g>
   <g id="patch_59">
    <path d="M 1155.782342 240.244732 
C 1158.579051 240.244732 1161.26159 239.133588 1163.239161 237.156016 
C 1165.216733 235.178445 1166.327877 232.495906 1166.327877 229.699197 
C 1166.327877 226.902489 1165.216733 224.219949 1163.239161 222.242378 
C 1161.26159 220.264806 1158.579051 219.153662 1155.782342 219.153662 
C 1152.985633 219.153662 1150.303094 220.264806 1148.325523 222.242378 
C 1146.347951 224.219949 1145.236807 226.902489 1145.236807 229.699197 
C 1145.236807 232.495906 1146.347951 235.178445 1148.325523 237.156016 
C 1150.303094 239.133588 1152.985633 240.244732 1155.782342 240.244732 
z
" clip-path="url(#p67e90ed8f1)" style="fill: #002d9c; stroke: #002d9c; stroke-width: 2; stroke-linejoin: miter"/>
   </g>
   <g id="patch_60">
    <path d="M 1140.717292 291.118246 
L 1170.847392 291.118246 
L 1170.847392 260.988147 
L 1140.717292 260.988147 
z
" clip-path="url(#p67e90ed8f1)" style="fill: #9f1853; stroke: #9f1853; stroke-width: 1.5; stroke-linejoin: miter"/>
   </g>
   <g id="patch_61">
    <path d="M 1202.136341 187.864713 
C 1203.334931 187.864713 1204.48459 187.388508 1205.332121 186.540977 
C 1206.179652 185.693447 1206.655856 184.543787 1206.655856 183.345198 
C 1206.655856 182.146608 1206.179652 180.996949 1205.332121 180.149418 
C 1204.48459 179.301887 1203.334931 178.825683 1202.136341 178.825683 
C 1200.937752 178.825683 1199.788092 179.301887 1198.940562 180.149418 
C 1198.093031 180.996949 1197.616826 182.146608 1197.616826 183.345198 
C 1197.616826 184.543787 1198.093031 185.693447 1198.940562 186.540977 
C 1199.788092 187.388508 1200.937752 187.864713 1202.136341 187.864713 
z
" clip-path="url(#p67e90ed8f1)" style="fill: #002d9c; stroke: #002d9c; stroke-width: 1.5; stroke-linejoin: miter"/>
   </g>
   <g id="patch_62">
    <path d="M 1202.136341 379.30673 
C 1204.93305 379.30673 1207.615589 378.195586 1209.593161 376.218014 
C 1211.570732 374.240443 1212.681876 371.557904 1212.681876 368.761195 
C 1212.681876 365.964487 1211.570732 363.281948 1209.593161 361.304376 
C 1207.615589 359.326804 1204.93305 358.21566 1202.136341 358.21566 
C 1199.339633 358.21566 1196.657094 359.326804 1194.679522 361.304376 
C 1192.701951 363.281948 1191.590806 365.964487 1191.590806 368.761195 
C 1191.590806 371.557904 1192.701951 374.240443 1194.679522 376.218014 
C 1196.657094 378.195586 1199.339633 379.30673 1202.136341 379.30673 
z
" clip-path="url(#p67e90ed8f1)" style="fill: #002d9c; stroke: #002d9c; stroke-width: 2; stroke-linejoin: miter"/>
   </g>
   <g id="patch_63">
    <path d="M 1248.490341 234.218712 
C 1249.68893 234.218712 1250.83859 233.742507 1251.68612 232.894977 
C 1252.533651 232.047446 1253.009856 230.897786 1253.009856 229.699197 
C 1253.009856 228.500608 1252.533651 227.350948 1251.68612 226.503417 
C 1250.83859 225.655887 1249.68893 225.179682 1248.490341 225.179682 
C 1247.291751 225.179682 1246.142092 225.655887 1245.294561 226.503417 
C 1244.44703 227.350948 1243.970826 228.500608 1243.970826 229.699197 
C 1243.970826 230.897786 1244.44703 232.047446 1245.294561 232.894977 
C 1246.142092 233.742507 1247.291751 234.218712 1248.490341 234.218712 
z
" clip-path="url(#p67e90ed8f1)" style="fill: #002d9c; stroke: #002d9c; stroke-width: 1.5; stroke-linejoin: miter"/>
   </g>
   <g id="patch_64">
    <path d="M 1248.490341 332.952731 
C 1251.287049 332.952731 1253.969588 331.841587 1255.94716 329.864015 
C 1257.924732 327.886443 1259.035876 325.203904 1259.035876 322.407196 
C 1259.035876 319.610487 1257.924732 316.927948 1255.94716 314.950377 
C 1253.969588 312.972805 1251.287049 311.861661 1248.490341 311.861661 
C 1245.693632 311.861661 1243.011093 312.972805 1241.033522 314.950377 
C 1239.05595 316.927948 1237.944806 319.610487 1237.944806 322.407196 
C 1237.944806 325.203904 1239.05595 327.886443 1241.033522 329.864015 
C 1243.011093 331.841587 1245.693632 332.952731 1248.490341 332.952731 
z
" clip-path="url(#p67e90ed8f1)" style="fill: #002d9c; stroke: #002d9c; stroke-width: 2; stroke-linejoin: miter"/>
   </g>
   <g id="patch_65">
    <path d="M 1294.84434 187.864713 
C 1296.042929 187.864713 1297.192589 187.388508 1298.04012 186.540977 
C 1298.88765 185.693447 1299.363855 184.543787 1299.363855 183.345198 
C 1299.363855 182.146608 1298.88765 180.996949 1298.04012 180.149418 
C 1297.192589 179.301887 1296.042929 178.825683 1294.84434 178.825683 
C 1293.645751 178.825683 1292.496091 179.301887 1291.64856 180.149418 
C 1290.80103 180.996949 1290.324825 182.146608 1290.324825 183.345198 
C 1290.324825 184.543787 1290.80103 185.693447 1291.64856 186.540977 
C 1292.496091 187.388508 1293.645751 187.864713 1294.84434 187.864713 
z
" clip-path="url(#p67e90ed8f1)" style="fill: #002d9c; stroke: #002d9c; stroke-width: 1.5; stroke-linejoin: miter"/>
   </g>
   <g id="patch_66">
    <path d="M 1294.84434 286.598731 
C 1297.641049 286.598731 1300.323588 285.487587 1302.301159 283.510016 
C 1304.278731 281.532444 1305.389875 278.849905 1305.389875 276.053196 
C 1305.389875 273.256488 1304.278731 270.573949 1302.301159 268.596377 
C 1300.323588 266.618806 1297.641049 265.507662 1294.84434 265.507662 
C 1292.047632 265.507662 1289.365092 266.618806 1287.387521 268.596377 
C 1285.409949 270.573949 1284.298805 273.256488 1284.298805 276.053196 
C 1284.298805 278.849905 1285.409949 281.532444 1287.387521 283.510016 
C 1289.365092 285.487587 1292.047632 286.598731 1294.84434 286.598731 
z
" clip-path="url(#p67e90ed8f1)" style="fill: #002d9c; stroke: #002d9c; stroke-width: 2; stroke-linejoin: miter"/>
   </g>
   <g id="patch_67">
    <path d="M 1341.19834 234.218712 
C 1342.396929 234.218712 1343.546588 233.742507 1344.394119 232.894977 
C 1345.24165 232.047446 1345.717854 230.897786 1345.717854 229.699197 
C 1345.717854 228.500608 1345.24165 227.350948 1344.394119 226.503417 
C 1343.546588 225.655887 1342.396929 225.179682 1341.19834 225.179682 
C 1339.99975 225.179682 1338.850091 225.655887 1338.00256 226.503417 
C 1337.155029 227.350948 1336.678825 228.500608 1336.678825 229.699197 
C 1336.678825 230.897786 1337.155029 232.047446 1338.00256 232.894977 
C 1338.850091 233.742507 1339.99975 234.218712 1341.19834 234.218712 
z
" clip-path="url(#p67e90ed8f1)" style="fill: #002d9c; stroke: #002d9c; stroke-width: 1.5; stroke-linejoin: miter"/>
   </g>
   <g id="patch_68">
    <path d="M 1341.19834 286.598731 
C 1343.995048 286.598731 1346.677587 285.487587 1348.655159 283.510016 
C 1350.63273 281.532444 1351.743874 278.849905 1351.743874 276.053196 
C 1351.743874 273.256488 1350.63273 270.573949 1348.655159 268.596377 
C 1346.677587 266.618806 1343.995048 265.507662 1341.19834 265.507662 
C 1338.401631 265.507662 1335.719092 266.618806 1333.74152 268.596377 
C 1331.763949 270.573949 1330.652805 273.256488 1330.652805 276.053196 
C 1330.652805 278.849905 1331.763949 281.532444 1333.74152 283.510016 
C 1335.719092 285.487587 1338.401631 286.598731 1341.19834 286.598731 
z
" clip-path="url(#p67e90ed8f1)" style="fill: #002d9c; stroke: #002d9c; stroke-width: 2; stroke-linejoin: miter"/>
   </g>
   <g id="patch_69">
    <path d="M 1372.487289 291.118246 
L 1402.617389 291.118246 
L 1402.617389 260.988147 
L 1372.487289 260.988147 
z
" clip-path="url(#p67e90ed8f1)" style="fill: #9f1853; stroke: #9f1853; stroke-width: 1.5; stroke-linejoin: miter"/>
   </g>
   <g id="patch_70">
    <path d="M 1433.906338 234.218712 
C 1435.104928 234.218712 1436.254587 233.742507 1437.102118 232.894977 
C 1437.949649 232.047446 1438.425853 230.897786 1438.425853 229.699197 
C 1438.425853 228.500608 1437.949649 227.350948 1437.102118 226.503417 
C 1436.254587 225.655887 1435.104928 225.179682 1433.906338 225.179682 
C 1432.707749 225.179682 1431.558089 225.655887 1430.710559 226.503417 
C 1429.863028 227.350948 1429.386823 228.500608 1429.386823 229.699197 
C 1429.386823 230.897786 1429.863028 232.047446 1430.710559 232.894977 
C 1431.558089 233.742507 1432.707749 234.218712 1433.906338 234.218712 
z
" clip-path="url(#p67e90ed8f1)" style="fill: #002d9c; stroke: #002d9c; stroke-width: 1.5; stroke-linejoin: miter"/>
   </g>
   <g id="patch_71">
    <path d="M 1433.906338 286.598731 
C 1436.703047 286.598731 1439.385586 285.487587 1441.363157 283.510016 
C 1443.340729 281.532444 1444.451873 278.849905 1444.451873 276.053196 
C 1444.451873 273.256488 1443.340729 270.573949 1441.363157 268.596377 
C 1439.385586 266.618806 1436.703047 265.507662 1433.906338 265.507662 
C 1431.10963 265.507662 1428.427091 266.618806 1426.449519 268.596377 
C 1424.471947 270.573949 1423.360803 273.256488 1423.360803 276.053196 
C 1423.360803 278.849905 1424.471947 281.532444 1426.449519 283.510016 
C 1428.427091 285.487587 1431.10963 286.598731 1433.906338 286.598731 
z
" clip-path="url(#p67e90ed8f1)" style="fill: #002d9c; stroke: #002d9c; stroke-width: 2; stroke-linejoin: miter"/>
   </g>
   <g id="patch_72">
    <path d="M 1480.260338 280.572711 
C 1481.458927 280.572711 1482.608587 280.096507 1483.456117 279.248976 
C 1484.303648 278.401445 1484.779853 277.251786 1484.779853 276.053196 
C 1484.779853 274.854607 1484.303648 273.704947 1483.456117 272.857417 
C 1482.608587 272.009886 1481.458927 271.533681 1480.260338 271.533681 
C 1479.061748 271.533681 1477.912089 272.009886 1477.064558 272.857417 
C 1476.217027 273.704947 1475.740823 274.854607 1475.740823 276.053196 
C 1475.740823 277.251786 1476.217027 278.401445 1477.064558 279.248976 
C 1477.912089 280.096507 1479.061748 280.572711 1480.260338 280.572711 
z
" clip-path="url(#p67e90ed8f1)" style="fill: #002d9c; stroke: #002d9c; stroke-width: 1.5; stroke-linejoin: miter"/>
   </g>
   <g id="patch_73">
    <path d="M 1480.260338 379.30673 
C 1483.057046 379.30673 1485.739585 378.195586 1487.717157 376.218014 
C 1489.694728 374.240443 1490.805873 371.557904 1490.805873 368.761195 
C 1490.805873 365.964487 1489.694728 363.281948 1487.717157 361.304376 
C 1485.739585 359.326804 1483.057046 358.21566 1480.260338 358.21566 
C 1477.463629 358.21566 1474.78109 359.326804 1472.803518 361.304376 
C 1470.825947 363.281948 1469.714803 365.964487 1469.714803 368.761195 
C 1469.714803 371.557904 1470.825947 374.240443 1472.803518 376.218014 
C 1474.78109 378.195586 1477.463629 379.30673 1480.260338 379.30673 
z
" clip-path="url(#p67e90ed8f1)" style="fill: #002d9c; stroke: #002d9c; stroke-width: 2; stroke-linejoin: miter"/>
   </g>
   <g id="patch_74">
    <path d="M 1511.549287 383.826245 
L 1541.679387 383.826245 
L 1541.679387 353.696145 
L 1511.549287 353.696145 
z
" clip-path="url(#p67e90ed8f1)" style="fill: #9f1853; stroke: #9f1853; stroke-width: 1.5; stroke-linejoin: miter"/>
   </g>
   <g id="patch_75">
    <path d="M 1572.968336 280.572711 
C 1574.166926 280.572711 1575.316585 280.096507 1576.164116 279.248976 
C 1577.011647 278.401445 1577.487851 277.251786 1577.487851 276.053196 
C 1577.487851 274.854607 1577.011647 273.704947 1576.164116 272.857417 
C 1575.316585 272.009886 1574.166926 271.533681 1572.968336 271.533681 
C 1571.769747 271.533681 1570.620087 272.009886 1569.772557 272.857417 
C 1568.925026 273.704947 1568.448821 274.854607 1568.448821 276.053196 
C 1568.448821 277.251786 1568.925026 278.401445 1569.772557 279.248976 
C 1570.620087 280.096507 1571.769747 280.572711 1572.968336 280.572711 
z
" clip-path="url(#p67e90ed8f1)" style="fill: #002d9c; stroke: #002d9c; stroke-width: 1.5; stroke-linejoin: miter"/>
   </g>
   <g id="patch_76">
    <path d="M 1572.968336 379.30673 
C 1575.765045 379.30673 1578.447584 378.195586 1580.425156 376.218014 
C 1582.402727 374.240443 1583.513871 371.557904 1583.513871 368.761195 
C 1583.513871 365.964487 1582.402727 363.281948 1580.425156 361.304376 
C 1578.447584 359.326804 1575.765045 358.21566 1572.968336 358.21566 
C 1570.171628 358.21566 1567.489089 359.326804 1565.511517 361.304376 
C 1563.533946 363.281948 1562.422802 365.964487 1562.422802 368.761195 
C 1562.422802 371.557904 1563.533946 374.240443 1565.511517 376.218014 
C 1567.489089 378.195586 1570.171628 379.30673 1572.968336 379.30673 
z
" clip-path="url(#p67e90ed8f1)" style="fill: #002d9c; stroke: #002d9c; stroke-width: 2; stroke-linejoin: miter"/>
   </g>
   <g id="line2d_34">
    <path d="M 182.348355 96.663219 
L 182.348355 84.611179 
" clip-path="url(#p67e90ed8f1)" style="fill: none; stroke: #ffffff; stroke-width: 2; stroke-linecap: square"/>
   </g>
   <g id="line2d_35">
    <path d="M 176.322335 90.637199 
L 188.374375 90.637199 
" clip-path="url(#p67e90ed8f1)" style="fill: none; stroke: #ffffff; stroke-width: 2; stroke-linecap: square"/>
   </g>
   <g id="line2d_36">
    <path d="M 228.702354 374.787215 
L 228.702354 362.735175 
" clip-path="url(#p67e90ed8f1)" style="fill: none; stroke: #ffffff; stroke-width: 2; stroke-linecap: square"/>
   </g>
   <g id="line2d_37">
    <path d="M 222.676334 368.761195 
L 234.728374 368.761195 
" clip-path="url(#p67e90ed8f1)" style="fill: none; stroke: #ffffff; stroke-width: 2; stroke-linecap: square"/>
   </g>
   <g id="line2d_38">
    <path d="M 275.056354 143.017218 
L 275.056354 130.965178 
" clip-path="url(#p67e90ed8f1)" style="fill: none; stroke: #ffffff; stroke-width: 2; stroke-linecap: square"/>
   </g>
   <g id="line2d_39">
    <path d="M 269.030334 136.991198 
L 281.082374 136.991198 
" clip-path="url(#p67e90ed8f1)" style="fill: none; stroke: #ffffff; stroke-width: 2; stroke-linecap: square"/>
   </g>
   <g id="line2d_40">
    <path d="M 321.410353 374.787215 
L 321.410353 362.735175 
" clip-path="url(#p67e90ed8f1)" style="fill: none; stroke: #ffffff; stroke-width: 2; stroke-linecap: square"/>
   </g>
   <g id="line2d_41">
    <path d="M 315.384333 368.761195 
L 327.436373 368.761195 
" clip-path="url(#p67e90ed8f1)" style="fill: none; stroke: #ffffff; stroke-width: 2; stroke-linecap: square"/>
   </g>
   <g id="line2d_42">
    <path d="M 367.764352 235.725217 
L 367.764352 223.673177 
" clip-path="url(#p67e90ed8f1)" style="fill: none; stroke: #ffffff; stroke-width: 2; stroke-linecap: square"/>
   </g>
   <g id="line2d_43">
    <path d="M 361.738333 229.699197 
L 373.790372 229.699197 
" clip-path="url(#p67e90ed8f1)" style="fill: none; stroke: #ffffff; stroke-width: 2; stroke-linecap: square"/>
   </g>
   <g id="line2d_44">
    <path d="M 414.118352 374.787215 
L 414.118352 362.735175 
" clip-path="url(#p67e90ed8f1)" style="fill: none; stroke: #ffffff; stroke-width: 2; stroke-linecap: square"/>
   </g>
   <g id="line2d_45">
    <path d="M 408.092332 368.761195 
L 420.144372 368.761195 
" clip-path="url(#p67e90ed8f1)" style="fill: none; stroke: #ffffff; stroke-width: 2; stroke-linecap: square"/>
   </g>
   <g id="line2d_46">
    <path d="M 506.826351 235.725217 
L 506.826351 223.673177 
" clip-path="url(#p67e90ed8f1)" style="fill: none; stroke: #ffffff; stroke-width: 2; stroke-linecap: square"/>
   </g>
   <g id="line2d_47">
    <path d="M 500.800331 229.699197 
L 512.852371 229.699197 
" clip-path="url(#p67e90ed8f1)" style="fill: none; stroke: #ffffff; stroke-width: 2; stroke-linecap: square"/>
   </g>
   <g id="line2d_48">
    <path d="M 553.18035 374.787215 
L 553.18035 362.735175 
" clip-path="url(#p67e90ed8f1)" style="fill: none; stroke: #ffffff; stroke-width: 2; stroke-linecap: square"/>
   </g>
   <g id="line2d_49">
    <path d="M 547.15433 368.761195 
L 559.20637 368.761195 
" clip-path="url(#p67e90ed8f1)" style="fill: none; stroke: #ffffff; stroke-width: 2; stroke-linecap: square"/>
   </g>
   <g id="line2d_50">
    <path d="M 599.534349 328.433216 
L 599.534349 316.381176 
" clip-path="url(#p67e90ed8f1)" style="fill: none; stroke: #ffffff; stroke-width: 2; stroke-linecap: square"/>
   </g>
   <g id="line2d_51">
    <path d="M 593.508329 322.407196 
L 605.560369 322.407196 
" clip-path="url(#p67e90ed8f1)" style="fill: none; stroke: #ffffff; stroke-width: 2; stroke-linecap: square"/>
   </g>
   <g id="line2d_52">
    <path d="M 692.242348 328.433216 
L 692.242348 316.381176 
" clip-path="url(#p67e90ed8f1)" style="fill: none; stroke: #ffffff; stroke-width: 2; stroke-linecap: square"/>
   </g>
   <g id="line2d_53">
    <path d="M 686.216328 322.407196 
L 698.268368 322.407196 
" clip-path="url(#p67e90ed8f1)" style="fill: none; stroke: #ffffff; stroke-width: 2; stroke-linecap: square"/>
   </g>
   <g id="line2d_54">
    <path d="M 738.596348 328.433216 
L 738.596348 316.381176 
" clip-path="url(#p67e90ed8f1)" style="fill: none; stroke: #ffffff; stroke-width: 2; stroke-linecap: square"/>
   </g>
   <g id="line2d_55">
    <path d="M 732.570328 322.407196 
L 744.622367 322.407196 
" clip-path="url(#p67e90ed8f1)" style="fill: none; stroke: #ffffff; stroke-width: 2; stroke-linecap: square"/>
   </g>
   <g id="line2d_56">
    <path d="M 831.304346 328.433216 
L 831.304346 316.381176 
" clip-path="url(#p67e90ed8f1)" style="fill: none; stroke: #ffffff; stroke-width: 2; stroke-linecap: square"/>
   </g>
   <g id="line2d_57">
    <path d="M 825.278326 322.407196 
L 837.330366 322.407196 
" clip-path="url(#p67e90ed8f1)" style="fill: none; stroke: #ffffff; stroke-width: 2; stroke-linecap: square"/>
   </g>
   <g id="line2d_58">
    <path d="M 877.658346 189.371218 
L 877.658346 177.319178 
" clip-path="url(#p67e90ed8f1)" style="fill: none; stroke: #ffffff; stroke-width: 2; stroke-linecap: square"/>
   </g>
   <g id="line2d_59">
    <path d="M 871.632326 183.345198 
L 883.684366 183.345198 
" clip-path="url(#p67e90ed8f1)" style="fill: none; stroke: #ffffff; stroke-width: 2; stroke-linecap: square"/>
   </g>
   <g id="line2d_60">
    <path d="M 924.012345 328.433216 
L 924.012345 316.381176 
" clip-path="url(#p67e90ed8f1)" style="fill: none; stroke: #ffffff; stroke-width: 2; stroke-linecap: square"/>
   </g>
   <g id="line2d_61">
    <path d="M 917.986325 322.407196 
L 930.038365 322.407196 
" clip-path="url(#p67e90ed8f1)" style="fill: none; stroke: #ffffff; stroke-width: 2; stroke-linecap: square"/>
   </g>
   <g id="line2d_62">
    <path d="M 1016.720344 189.371218 
L 1016.720344 177.319178 
" clip-path="url(#p67e90ed8f1)" style="fill: none; stroke: #ffffff; stroke-width: 2; stroke-linecap: square"/>
   </g>
   <g id="line2d_63">
    <path d="M 1010.694324 183.345198 
L 1022.746364 183.345198 
" clip-path="url(#p67e90ed8f1)" style="fill: none; stroke: #ffffff; stroke-width: 2; stroke-linecap: square"/>
   </g>
   <g id="line2d_64">
    <path d="M 1063.074343 328.433216 
L 1063.074343 316.381176 
" clip-path="url(#p67e90ed8f1)" style="fill: none; stroke: #ffffff; stroke-width: 2; stroke-linecap: square"/>
   </g>
   <g id="line2d_65">
    <path d="M 1057.048323 322.407196 
L 1069.100363 322.407196 
" clip-path="url(#p67e90ed8f1)" style="fill: none; stroke: #ffffff; stroke-width: 2; stroke-linecap: square"/>
   </g>
   <g id="line2d_66">
    <path d="M 1109.428343 282.079216 
L 1109.428343 270.027177 
" clip-path="url(#p67e90ed8f1)" style="fill: none; stroke: #ffffff; stroke-width: 2; stroke-linecap: square"/>
   </g>
   <g id="line2d_67">
    <path d="M 1103.402323 276.053196 
L 1115.454363 276.053196 
" clip-path="url(#p67e90ed8f1)" style="fill: none; stroke: #ffffff; stroke-width: 2; stroke-linecap: square"/>
   </g>
   <g id="line2d_68">
    <path d="M 1155.782342 235.725217 
L 1155.782342 223.673177 
" clip-path="url(#p67e90ed8f1)" style="fill: none; stroke: #ffffff; stroke-width: 2; stroke-linecap: square"/>
   </g>
   <g id="line2d_69">
    <path d="M 1149.756322 229.699197 
L 1161.808362 229.699197 
" clip-path="url(#p67e90ed8f1)" style="fill: none; stroke: #ffffff; stroke-width: 2; stroke-linecap: square"/>
   </g>
   <g id="line2d_70">
    <path d="M 1202.136341 374.787215 
L 1202.136341 362.735175 
" clip-path="url(#p67e90ed8f1)" style="fill: none; stroke: #ffffff; stroke-width: 2; stroke-linecap: square"/>
   </g>
   <g id="line2d_71">
    <path d="M 1196.110321 368.761195 
L 1208.162361 368.761195 
" clip-path="url(#p67e90ed8f1)" style="fill: none; stroke: #ffffff; stroke-width: 2; stroke-linecap: square"/>
   </g>
   <g id="line2d_72">
    <path d="M 1248.490341 328.433216 
L 1248.490341 316.381176 
" clip-path="url(#p67e90ed8f1)" style="fill: none; stroke: #ffffff; stroke-width: 2; stroke-linecap: square"/>
   </g>
   <g id="line2d_73">
    <path d="M 1242.464321 322.407196 
L 1254.516361 322.407196 
" clip-path="url(#p67e90ed8f1)" style="fill: none; stroke: #ffffff; stroke-width: 2; stroke-linecap: square"/>
   </g>
   <g id="line2d_74">
    <path d="M 1294.84434 282.079216 
L 1294.84434 270.027177 
" clip-path="url(#p67e90ed8f1)" style="fill: none; stroke: #ffffff; stroke-width: 2; stroke-linecap: square"/>
   </g>
   <g id="line2d_75">
    <path d="M 1288.81832 276.053196 
L 1300.87036 276.053196 
" clip-path="url(#p67e90ed8f1)" style="fill: none; stroke: #ffffff; stroke-width: 2; stroke-linecap: square"/>
   </g>
   <g id="line2d_76">
    <path d="M 1341.19834 282.079216 
L 1341.19834 270.027177 
" clip-path="url(#p67e90ed8f1)" style="fill: none; stroke: #ffffff; stroke-width: 2; stroke-linecap: square"/>
   </g>
   <g id="line2d_77">
    <path d="M 1335.17232 276.053196 
L 1347.224359 276.053196 
" clip-path="url(#p67e90ed8f1)" style="fill: none; stroke: #ffffff; stroke-width: 2; stroke-linecap: square"/>
   </g>
   <g id="line2d_78">
    <path d="M 1433.906338 282.079216 
L 1433.906338 270.027177 
" clip-path="url(#p67e90ed8f1)" style="fill: none; stroke: #ffffff; stroke-width: 2; stroke-linecap: square"/>
   </g>
   <g id="line2d_79">
    <path d="M 1427.880318 276.053196 
L 1439.932358 276.053196 
" clip-path="url(#p67e90ed8f1)" style="fill: none; stroke: #ffffff; stroke-width: 2; stroke-linecap: square"/>
   </g>
   <g id="line2d_80">
    <path d="M 1480.260338 374.787215 
L 1480.260338 362.735175 
" clip-path="url(#p67e90ed8f1)" style="fill: none; stroke: #ffffff; stroke-width: 2; stroke-linecap: square"/>
   </g>
   <g id="line2d_81">
    <path d="M 1474.234318 368.761195 
L 1486.286358 368.761195 
" clip-path="url(#p67e90ed8f1)" style="fill: none; stroke: #ffffff; stroke-width: 2; stroke-linecap: square"/>
   </g>
   <g id="line2d_82">
    <path d="M 1572.968336 374.787215 
L 1572.968336 362.735175 
" clip-path="url(#p67e90ed8f1)" style="fill: none; stroke: #ffffff; stroke-width: 2; stroke-linecap: square"/>
   </g>
   <g id="line2d_83">
    <path d="M 1566.942317 368.761195 
L 1578.994356 368.761195 
" clip-path="url(#p67e90ed8f1)" style="fill: none; stroke: #ffffff; stroke-width: 2; stroke-linecap: square"/>
   </g>
   <g id="text_1">
    <g clip-path="url(#p67e90ed8f1)">
     <!-- ${q}_{0}$ -->
     <g transform="translate(37.300897 48.734176) scale(0.1625 -0.1625)">
      <defs>
       <path id="DejaVuSans-Oblique-71" d="M 2669 525 
Q 2438 222 2123 65 
Q 1809 -91 1428 -91 
Q 897 -91 595 267 
Q 294 625 294 1253 
Q 294 1759 480 2231 
Q 666 2703 1013 3078 
Q 1238 3322 1530 3453 
Q 1822 3584 2144 3584 
Q 2531 3584 2781 3431 
Q 3031 3278 3144 2969 
L 3244 3494 
L 3822 3494 
L 2888 -1319 
L 2309 -1319 
L 2669 525 
z
M 891 1338 
Q 891 875 1084 633 
Q 1278 391 1644 391 
Q 2188 391 2572 911 
Q 2956 1431 2956 2175 
Q 2956 2625 2757 2864 
Q 2559 3103 2188 3103 
Q 1916 3103 1684 2976 
Q 1453 2850 1281 2606 
Q 1100 2350 995 2006 
Q 891 1663 891 1338 
z
" transform="scale(0.015625)"/>
       <path id="DejaVuSans-30" d="M 2034 4250 
Q 1547 4250 1301 3770 
Q 1056 3291 1056 2328 
Q 1056 1369 1301 889 
Q 1547 409 2034 409 
Q 2525 409 2770 889 
Q 3016 1369 3016 2328 
Q 3016 3291 2770 3770 
Q 2525 4250 2034 4250 
z
M 2034 4750 
Q 2819 4750 3233 4129 
Q 3647 3509 3647 2328 
Q 3647 1150 3233 529 
Q 2819 -91 2034 -91 
Q 1250 -91 836 529 
Q 422 1150 422 2328 
Q 422 3509 836 4129 
Q 1250 4750 2034 4750 
z
" transform="scale(0.015625)"/>
      </defs>
      <use xlink:href="#DejaVuSans-Oblique-71"/>
      <use xlink:href="#DejaVuSans-30" transform="translate(63.476562 -16.40625) scale(0.7)"/>
     </g>
    </g>
   </g>
   <g id="text_2">
    <g clip-path="url(#p67e90ed8f1)">
     <!-- ${q}_{1}$ -->
     <g transform="translate(37.300897 95.088175) scale(0.1625 -0.1625)">
      <defs>
       <path id="DejaVuSans-31" d="M 794 531 
L 1825 531 
L 1825 4091 
L 703 3866 
L 703 4441 
L 1819 4666 
L 2450 4666 
L 2450 531 
L 3481 531 
L 3481 0 
L 794 0 
L 794 531 
z
" transform="scale(0.015625)"/>
      </defs>
      <use xlink:href="#DejaVuSans-Oblique-71"/>
      <use xlink:href="#DejaVuSans-31" transform="translate(63.476562 -16.40625) scale(0.7)"/>
     </g>
    </g>
   </g>
   <g id="text_3">
    <g clip-path="url(#p67e90ed8f1)">
     <!-- ${q}_{2}$ -->
     <g transform="translate(37.300897 141.442175) scale(0.1625 -0.1625)">
      <defs>
       <path id="DejaVuSans-32" d="M 1228 531 
L 3431 531 
L 3431 0 
L 469 0 
L 469 531 
Q 828 903 1448 1529 
Q 2069 2156 2228 2338 
Q 2531 2678 2651 2914 
Q 2772 3150 2772 3378 
Q 2772 3750 2511 3984 
Q 2250 4219 1831 4219 
Q 1534 4219 1204 4116 
Q 875 4013 500 3803 
L 500 4441 
Q 881 4594 1212 4672 
Q 1544 4750 1819 4750 
Q 2544 4750 2975 4387 
Q 3406 4025 3406 3419 
Q 3406 3131 3298 2873 
Q 3191 2616 2906 2266 
Q 2828 2175 2409 1742 
Q 1991 1309 1228 531 
z
" transform="scale(0.015625)"/>
      </defs>
      <use xlink:href="#DejaVuSans-Oblique-71"/>
      <use xlink:href="#DejaVuSans-32" transform="translate(63.476562 -16.40625) scale(0.7)"/>
     </g>
    </g>
   </g>
   <g id="text_4">
    <g clip-path="url(#p67e90ed8f1)">
     <!-- ${q}_{3}$ -->
     <g transform="translate(37.300897 187.796174) scale(0.1625 -0.1625)">
      <defs>
       <path id="DejaVuSans-33" d="M 2597 2516 
Q 3050 2419 3304 2112 
Q 3559 1806 3559 1356 
Q 3559 666 3084 287 
Q 2609 -91 1734 -91 
Q 1441 -91 1130 -33 
Q 819 25 488 141 
L 488 750 
Q 750 597 1062 519 
Q 1375 441 1716 441 
Q 2309 441 2620 675 
Q 2931 909 2931 1356 
Q 2931 1769 2642 2001 
Q 2353 2234 1838 2234 
L 1294 2234 
L 1294 2753 
L 1863 2753 
Q 2328 2753 2575 2939 
Q 2822 3125 2822 3475 
Q 2822 3834 2567 4026 
Q 2313 4219 1838 4219 
Q 1578 4219 1281 4162 
Q 984 4106 628 3988 
L 628 4550 
Q 988 4650 1302 4700 
Q 1616 4750 1894 4750 
Q 2613 4750 3031 4423 
Q 3450 4097 3450 3541 
Q 3450 3153 3228 2886 
Q 3006 2619 2597 2516 
z
" transform="scale(0.015625)"/>
      </defs>
      <use xlink:href="#DejaVuSans-Oblique-71"/>
      <use xlink:href="#DejaVuSans-33" transform="translate(63.476562 -16.40625) scale(0.7)"/>
     </g>
    </g>
   </g>
   <g id="text_5">
    <g clip-path="url(#p67e90ed8f1)">
     <!-- ${q}_{4}$ -->
     <g transform="translate(37.300897 234.150174) scale(0.1625 -0.1625)">
      <defs>
       <path id="DejaVuSans-34" d="M 2419 4116 
L 825 1625 
L 2419 1625 
L 2419 4116 
z
M 2253 4666 
L 3047 4666 
L 3047 1625 
L 3713 1625 
L 3713 1100 
L 3047 1100 
L 3047 0 
L 2419 0 
L 2419 1100 
L 313 1100 
L 313 1709 
L 2253 4666 
z
" transform="scale(0.015625)"/>
      </defs>
      <use xlink:href="#DejaVuSans-Oblique-71"/>
      <use xlink:href="#DejaVuSans-34" transform="translate(63.476562 -16.40625) scale(0.7)"/>
     </g>
    </g>
   </g>
   <g id="text_6">
    <g clip-path="url(#p67e90ed8f1)">
     <!-- ${q}_{5}$ -->
     <g transform="translate(37.300897 280.504173) scale(0.1625 -0.1625)">
      <defs>
       <path id="DejaVuSans-35" d="M 691 4666 
L 3169 4666 
L 3169 4134 
L 1269 4134 
L 1269 2991 
Q 1406 3038 1543 3061 
Q 1681 3084 1819 3084 
Q 2600 3084 3056 2656 
Q 3513 2228 3513 1497 
Q 3513 744 3044 326 
Q 2575 -91 1722 -91 
Q 1428 -91 1123 -41 
Q 819 9 494 109 
L 494 744 
Q 775 591 1075 516 
Q 1375 441 1709 441 
Q 2250 441 2565 725 
Q 2881 1009 2881 1497 
Q 2881 1984 2565 2268 
Q 2250 2553 1709 2553 
Q 1456 2553 1204 2497 
Q 953 2441 691 2322 
L 691 4666 
z
" transform="scale(0.015625)"/>
      </defs>
      <use xlink:href="#DejaVuSans-Oblique-71"/>
      <use xlink:href="#DejaVuSans-35" transform="translate(63.476562 -16.40625) scale(0.7)"/>
     </g>
    </g>
   </g>
   <g id="text_7">
    <g clip-path="url(#p67e90ed8f1)">
     <!-- ${q}_{6}$ -->
     <g transform="translate(37.300897 326.858172) scale(0.1625 -0.1625)">
      <defs>
       <path id="DejaVuSans-36" d="M 2113 2584 
Q 1688 2584 1439 2293 
Q 1191 2003 1191 1497 
Q 1191 994 1439 701 
Q 1688 409 2113 409 
Q 2538 409 2786 701 
Q 3034 994 3034 1497 
Q 3034 2003 2786 2293 
Q 2538 2584 2113 2584 
z
M 3366 4563 
L 3366 3988 
Q 3128 4100 2886 4159 
Q 2644 4219 2406 4219 
Q 1781 4219 1451 3797 
Q 1122 3375 1075 2522 
Q 1259 2794 1537 2939 
Q 1816 3084 2150 3084 
Q 2853 3084 3261 2657 
Q 3669 2231 3669 1497 
Q 3669 778 3244 343 
Q 2819 -91 2113 -91 
Q 1303 -91 875 529 
Q 447 1150 447 2328 
Q 447 3434 972 4092 
Q 1497 4750 2381 4750 
Q 2619 4750 2861 4703 
Q 3103 4656 3366 4563 
z
" transform="scale(0.015625)"/>
      </defs>
      <use xlink:href="#DejaVuSans-Oblique-71"/>
      <use xlink:href="#DejaVuSans-36" transform="translate(63.476562 -16.40625) scale(0.7)"/>
     </g>
    </g>
   </g>
   <g id="text_8">
    <g clip-path="url(#p67e90ed8f1)">
     <!-- ${q}_{7}$ -->
     <g transform="translate(37.300897 373.212172) scale(0.1625 -0.1625)">
      <defs>
       <path id="DejaVuSans-37" d="M 525 4666 
L 3525 4666 
L 3525 4397 
L 1831 0 
L 1172 0 
L 2766 4134 
L 525 4134 
L 525 4666 
z
" transform="scale(0.015625)"/>
      </defs>
      <use xlink:href="#DejaVuSans-Oblique-71"/>
      <use xlink:href="#DejaVuSans-37" transform="translate(63.476562 -16.40625) scale(0.7)"/>
     </g>
    </g>
   </g>
   <g id="text_9">
    <g clip-path="url(#p67e90ed8f1)">
     <!-- H -->
     <g transform="translate(84.752153 47.870387) scale(0.13 -0.13)">
      <defs>
       <path id="DejaVuSans-48" d="M 628 4666 
L 1259 4666 
L 1259 2753 
L 3553 2753 
L 3553 4666 
L 4184 4666 
L 4184 0 
L 3553 0 
L 3553 2222 
L 1259 2222 
L 1259 0 
L 628 0 
L 628 4666 
z
" transform="scale(0.015625)"/>
      </defs>
      <use xlink:href="#DejaVuSans-48"/>
     </g>
    </g>
   </g>
   <g id="text_10">
    <g clip-path="url(#p67e90ed8f1)">
     <!-- H -->
     <g transform="translate(84.752153 94.224386) scale(0.13 -0.13)">
      <use xlink:href="#DejaVuSans-48"/>
     </g>
    </g>
   </g>
   <g id="text_11">
    <g clip-path="url(#p67e90ed8f1)">
     <!-- H -->
     <g transform="translate(84.752153 140.578386) scale(0.13 -0.13)">
      <use xlink:href="#DejaVuSans-48"/>
     </g>
    </g>
   </g>
   <g id="text_12">
    <g clip-path="url(#p67e90ed8f1)">
     <!-- H -->
     <g transform="translate(84.752153 186.932385) scale(0.13 -0.13)">
      <use xlink:href="#DejaVuSans-48"/>
     </g>
    </g>
   </g>
   <g id="text_13">
    <g clip-path="url(#p67e90ed8f1)">
     <!-- H -->
     <g transform="translate(84.752153 233.286385) scale(0.13 -0.13)">
      <use xlink:href="#DejaVuSans-48"/>
     </g>
    </g>
   </g>
   <g id="text_14">
    <g clip-path="url(#p67e90ed8f1)">
     <!-- H -->
     <g transform="translate(84.752153 279.640384) scale(0.13 -0.13)">
      <use xlink:href="#DejaVuSans-48"/>
     </g>
    </g>
   </g>
   <g id="text_15">
    <g clip-path="url(#p67e90ed8f1)">
     <!-- H -->
     <g transform="translate(84.752153 325.994383) scale(0.13 -0.13)">
      <use xlink:href="#DejaVuSans-48"/>
     </g>
    </g>
   </g>
   <g id="text_16">
    <g clip-path="url(#p67e90ed8f1)">
     <!-- H -->
     <g transform="translate(84.752153 372.348383) scale(0.13 -0.13)">
      <use xlink:href="#DejaVuSans-48"/>
     </g>
    </g>
   </g>
   <g id="text_17">
    <g clip-path="url(#p67e90ed8f1)">
     <!-- $\theta$[0] -->
     <g style="fill: #ffffff" transform="translate(127.874356 101.883729) scale(0.08 -0.08)">
      <defs>
       <path id="DejaVuSans-Oblique-3b8" d="M 2913 2219 
L 925 2219 
Q 791 1284 928 888 
Q 1100 400 1566 400 
Q 2034 400 2391 891 
Q 2703 1322 2913 2219 
z
M 3009 2750 
Q 3094 3638 2984 3950 
Q 2813 4444 2353 4444 
Q 1875 4444 1525 3956 
Q 1250 3563 1034 2750 
L 3009 2750 
z
M 2444 4913 
Q 3194 4913 3494 4250 
Q 3794 3591 3566 2422 
Q 3341 1256 2781 594 
Q 2225 -72 1475 -72 
Q 722 -72 425 594 
Q 128 1256 353 2422 
Q 581 3591 1134 4250 
Q 1691 4913 2444 4913 
z
" transform="scale(0.015625)"/>
       <path id="DejaVuSans-5b" d="M 550 4863 
L 1875 4863 
L 1875 4416 
L 1125 4416 
L 1125 -397 
L 1875 -397 
L 1875 -844 
L 550 -844 
L 550 4863 
z
" transform="scale(0.015625)"/>
       <path id="DejaVuSans-5d" d="M 1947 4863 
L 1947 -844 
L 622 -844 
L 622 -397 
L 1369 -397 
L 1369 4416 
L 622 4416 
L 622 4863 
L 1947 4863 
z
" transform="scale(0.015625)"/>
      </defs>
      <use xlink:href="#DejaVuSans-Oblique-3b8" transform="translate(0 0.234375)"/>
      <use xlink:href="#DejaVuSans-5b" transform="translate(61.181641 0.234375)"/>
      <use xlink:href="#DejaVuSans-30" transform="translate(100.195312 0.234375)"/>
      <use xlink:href="#DejaVuSans-5d" transform="translate(163.818359 0.234375)"/>
     </g>
    </g>
   </g>
   <g id="text_18">
    <g clip-path="url(#p67e90ed8f1)">
     <!-- $\mathrm{R_Y}$ -->
     <g style="fill: #ffffff" transform="translate(128.454356 89.704871) scale(0.13 -0.13)">
      <defs>
       <path id="DejaVuSans-52" d="M 2841 2188 
Q 3044 2119 3236 1894 
Q 3428 1669 3622 1275 
L 4263 0 
L 3584 0 
L 2988 1197 
Q 2756 1666 2539 1819 
Q 2322 1972 1947 1972 
L 1259 1972 
L 1259 0 
L 628 0 
L 628 4666 
L 2053 4666 
Q 2853 4666 3247 4331 
Q 3641 3997 3641 3322 
Q 3641 2881 3436 2590 
Q 3231 2300 2841 2188 
z
M 1259 4147 
L 1259 2491 
L 2053 2491 
Q 2509 2491 2742 2702 
Q 2975 2913 2975 3322 
Q 2975 3731 2742 3939 
Q 2509 4147 2053 4147 
L 1259 4147 
z
" transform="scale(0.015625)"/>
       <path id="DejaVuSans-59" d="M -13 4666 
L 666 4666 
L 1959 2747 
L 3244 4666 
L 3922 4666 
L 2272 2222 
L 2272 0 
L 1638 0 
L 1638 2222 
L -13 4666 
z
" transform="scale(0.015625)"/>
      </defs>
      <use xlink:href="#DejaVuSans-52" transform="translate(0 0.09375)"/>
      <use xlink:href="#DejaVuSans-59" transform="translate(70.439453 -16.3125) scale(0.7)"/>
     </g>
    </g>
   </g>
   <g id="text_19">
    <g clip-path="url(#p67e90ed8f1)">
     <!-- $\theta$[4] -->
     <g style="fill: #ffffff" transform="translate(127.874356 148.237728) scale(0.08 -0.08)">
      <use xlink:href="#DejaVuSans-Oblique-3b8" transform="translate(0 0.234375)"/>
      <use xlink:href="#DejaVuSans-5b" transform="translate(61.181641 0.234375)"/>
      <use xlink:href="#DejaVuSans-34" transform="translate(100.195312 0.234375)"/>
      <use xlink:href="#DejaVuSans-5d" transform="translate(163.818359 0.234375)"/>
     </g>
    </g>
   </g>
   <g id="text_20">
    <g clip-path="url(#p67e90ed8f1)">
     <!-- $\mathrm{R_Y}$ -->
     <g style="fill: #ffffff" transform="translate(128.454356 136.058871) scale(0.13 -0.13)">
      <use xlink:href="#DejaVuSans-52" transform="translate(0 0.09375)"/>
      <use xlink:href="#DejaVuSans-59" transform="translate(70.439453 -16.3125) scale(0.7)"/>
     </g>
    </g>
   </g>
   <g id="text_21">
    <g clip-path="url(#p67e90ed8f1)">
     <!-- $\theta$[9] -->
     <g style="fill: #ffffff" transform="translate(127.874356 287.299726) scale(0.08 -0.08)">
      <defs>
       <path id="DejaVuSans-39" d="M 703 97 
L 703 672 
Q 941 559 1184 500 
Q 1428 441 1663 441 
Q 2288 441 2617 861 
Q 2947 1281 2994 2138 
Q 2813 1869 2534 1725 
Q 2256 1581 1919 1581 
Q 1219 1581 811 2004 
Q 403 2428 403 3163 
Q 403 3881 828 4315 
Q 1253 4750 1959 4750 
Q 2769 4750 3195 4129 
Q 3622 3509 3622 2328 
Q 3622 1225 3098 567 
Q 2575 -91 1691 -91 
Q 1453 -91 1209 -44 
Q 966 3 703 97 
z
M 1959 2075 
Q 2384 2075 2632 2365 
Q 2881 2656 2881 3163 
Q 2881 3666 2632 3958 
Q 2384 4250 1959 4250 
Q 1534 4250 1286 3958 
Q 1038 3666 1038 3163 
Q 1038 2656 1286 2365 
Q 1534 2075 1959 2075 
z
" transform="scale(0.015625)"/>
      </defs>
      <use xlink:href="#DejaVuSans-Oblique-3b8" transform="translate(0 0.234375)"/>
      <use xlink:href="#DejaVuSans-5b" transform="translate(61.181641 0.234375)"/>
      <use xlink:href="#DejaVuSans-39" transform="translate(100.195312 0.234375)"/>
      <use xlink:href="#DejaVuSans-5d" transform="translate(163.818359 0.234375)"/>
     </g>
    </g>
   </g>
   <g id="text_22">
    <g clip-path="url(#p67e90ed8f1)">
     <!-- $\mathrm{R_Y}$ -->
     <g style="fill: #ffffff" transform="translate(128.454356 275.120869) scale(0.13 -0.13)">
      <use xlink:href="#DejaVuSans-52" transform="translate(0 0.09375)"/>
      <use xlink:href="#DejaVuSans-59" transform="translate(70.439453 -16.3125) scale(0.7)"/>
     </g>
    </g>
   </g>
   <g id="text_23">
    <g clip-path="url(#p67e90ed8f1)">
     <!-- $\theta$[1] -->
     <g style="fill: #ffffff" transform="translate(266.936354 380.007725) scale(0.08 -0.08)">
      <use xlink:href="#DejaVuSans-Oblique-3b8" transform="translate(0 0.234375)"/>
      <use xlink:href="#DejaVuSans-5b" transform="translate(61.181641 0.234375)"/>
      <use xlink:href="#DejaVuSans-31" transform="translate(100.195312 0.234375)"/>
      <use xlink:href="#DejaVuSans-5d" transform="translate(163.818359 0.234375)"/>
     </g>
    </g>
   </g>
   <g id="text_24">
    <g clip-path="url(#p67e90ed8f1)">
     <!-- $\mathrm{R_Y}$ -->
     <g style="fill: #ffffff" transform="translate(267.516354 367.828868) scale(0.13 -0.13)">
      <use xlink:href="#DejaVuSans-52" transform="translate(0 0.09375)"/>
      <use xlink:href="#DejaVuSans-59" transform="translate(70.439453 -16.3125) scale(0.7)"/>
     </g>
    </g>
   </g>
   <g id="text_25">
    <g clip-path="url(#p67e90ed8f1)">
     <!-- $\theta$[2] -->
     <g style="fill: #ffffff" transform="translate(452.352351 240.945727) scale(0.08 -0.08)">
      <use xlink:href="#DejaVuSans-Oblique-3b8" transform="translate(0 0.234375)"/>
      <use xlink:href="#DejaVuSans-5b" transform="translate(61.181641 0.234375)"/>
      <use xlink:href="#DejaVuSans-32" transform="translate(100.195312 0.234375)"/>
      <use xlink:href="#DejaVuSans-5d" transform="translate(163.818359 0.234375)"/>
     </g>
    </g>
   </g>
   <g id="text_26">
    <g clip-path="url(#p67e90ed8f1)">
     <!-- $\mathrm{R_Y}$ -->
     <g style="fill: #ffffff" transform="translate(452.932351 228.76687) scale(0.13 -0.13)">
      <use xlink:href="#DejaVuSans-52" transform="translate(0 0.09375)"/>
      <use xlink:href="#DejaVuSans-59" transform="translate(70.439453 -16.3125) scale(0.7)"/>
     </g>
    </g>
   </g>
   <g id="text_27">
    <g clip-path="url(#p67e90ed8f1)">
     <!-- $\theta$[7] -->
     <g style="fill: #ffffff" transform="translate(452.352351 380.007725) scale(0.08 -0.08)">
      <use xlink:href="#DejaVuSans-Oblique-3b8" transform="translate(0 0.234375)"/>
      <use xlink:href="#DejaVuSans-5b" transform="translate(61.181641 0.234375)"/>
      <use xlink:href="#DejaVuSans-37" transform="translate(100.195312 0.234375)"/>
      <use xlink:href="#DejaVuSans-5d" transform="translate(163.818359 0.234375)"/>
     </g>
    </g>
   </g>
   <g id="text_28">
    <g clip-path="url(#p67e90ed8f1)">
     <!-- $\mathrm{R_Y}$ -->
     <g style="fill: #ffffff" transform="translate(452.932351 367.828868) scale(0.13 -0.13)">
      <use xlink:href="#DejaVuSans-52" transform="translate(0 0.09375)"/>
      <use xlink:href="#DejaVuSans-59" transform="translate(70.439453 -16.3125) scale(0.7)"/>
     </g>
    </g>
   </g>
   <g id="text_29">
    <g clip-path="url(#p67e90ed8f1)">
     <!-- $\theta$[11] -->
     <g style="fill: #ffffff" transform="translate(588.854349 380.007725) scale(0.08 -0.08)">
      <use xlink:href="#DejaVuSans-Oblique-3b8" transform="translate(0 0.234375)"/>
      <use xlink:href="#DejaVuSans-5b" transform="translate(61.181641 0.234375)"/>
      <use xlink:href="#DejaVuSans-31" transform="translate(100.195312 0.234375)"/>
      <use xlink:href="#DejaVuSans-31" transform="translate(163.818359 0.234375)"/>
      <use xlink:href="#DejaVuSans-5d" transform="translate(227.441406 0.234375)"/>
     </g>
    </g>
   </g>
   <g id="text_30">
    <g clip-path="url(#p67e90ed8f1)">
     <!-- $\mathrm{R_Y}$ -->
     <g style="fill: #ffffff" transform="translate(591.994349 367.828868) scale(0.13 -0.13)">
      <use xlink:href="#DejaVuSans-52" transform="translate(0 0.09375)"/>
      <use xlink:href="#DejaVuSans-59" transform="translate(70.439453 -16.3125) scale(0.7)"/>
     </g>
    </g>
   </g>
   <g id="text_31">
    <g clip-path="url(#p67e90ed8f1)">
     <!-- $\theta$[10] -->
     <g style="fill: #ffffff" transform="translate(635.208349 240.945727) scale(0.08 -0.08)">
      <use xlink:href="#DejaVuSans-Oblique-3b8" transform="translate(0 0.234375)"/>
      <use xlink:href="#DejaVuSans-5b" transform="translate(61.181641 0.234375)"/>
      <use xlink:href="#DejaVuSans-31" transform="translate(100.195312 0.234375)"/>
      <use xlink:href="#DejaVuSans-30" transform="translate(163.818359 0.234375)"/>
      <use xlink:href="#DejaVuSans-5d" transform="translate(227.441406 0.234375)"/>
     </g>
    </g>
   </g>
   <g id="text_32">
    <g clip-path="url(#p67e90ed8f1)">
     <!-- $\mathrm{R_Y}$ -->
     <g style="fill: #ffffff" transform="translate(638.348349 228.76687) scale(0.13 -0.13)">
      <use xlink:href="#DejaVuSans-52" transform="translate(0 0.09375)"/>
      <use xlink:href="#DejaVuSans-59" transform="translate(70.439453 -16.3125) scale(0.7)"/>
     </g>
    </g>
   </g>
   <g id="text_33">
    <g clip-path="url(#p67e90ed8f1)">
     <!-- $\theta$[3] -->
     <g style="fill: #ffffff" transform="translate(637.768349 333.653726) scale(0.08 -0.08)">
      <use xlink:href="#DejaVuSans-Oblique-3b8" transform="translate(0 0.234375)"/>
      <use xlink:href="#DejaVuSans-5b" transform="translate(61.181641 0.234375)"/>
      <use xlink:href="#DejaVuSans-33" transform="translate(100.195312 0.234375)"/>
      <use xlink:href="#DejaVuSans-5d" transform="translate(163.818359 0.234375)"/>
     </g>
    </g>
   </g>
   <g id="text_34">
    <g clip-path="url(#p67e90ed8f1)">
     <!-- $\mathrm{R_Y}$ -->
     <g style="fill: #ffffff" transform="translate(638.348349 321.474868) scale(0.13 -0.13)">
      <use xlink:href="#DejaVuSans-52" transform="translate(0 0.09375)"/>
      <use xlink:href="#DejaVuSans-59" transform="translate(70.439453 -16.3125) scale(0.7)"/>
     </g>
    </g>
   </g>
   <g id="text_35">
    <g clip-path="url(#p67e90ed8f1)">
     <!-- $\theta$[5] -->
     <g style="fill: #ffffff" transform="translate(776.830347 333.653726) scale(0.08 -0.08)">
      <use xlink:href="#DejaVuSans-Oblique-3b8" transform="translate(0 0.234375)"/>
      <use xlink:href="#DejaVuSans-5b" transform="translate(61.181641 0.234375)"/>
      <use xlink:href="#DejaVuSans-35" transform="translate(100.195312 0.234375)"/>
      <use xlink:href="#DejaVuSans-5d" transform="translate(163.818359 0.234375)"/>
     </g>
    </g>
   </g>
   <g id="text_36">
    <g clip-path="url(#p67e90ed8f1)">
     <!-- $\mathrm{R_Y}$ -->
     <g style="fill: #ffffff" transform="translate(777.410347 321.474868) scale(0.13 -0.13)">
      <use xlink:href="#DejaVuSans-52" transform="translate(0 0.09375)"/>
      <use xlink:href="#DejaVuSans-59" transform="translate(70.439453 -16.3125) scale(0.7)"/>
     </g>
    </g>
   </g>
   <g id="text_37">
    <g clip-path="url(#p67e90ed8f1)">
     <!-- $\theta$[6] -->
     <g style="fill: #ffffff" transform="translate(962.246344 194.591728) scale(0.08 -0.08)">
      <use xlink:href="#DejaVuSans-Oblique-3b8" transform="translate(0 0.234375)"/>
      <use xlink:href="#DejaVuSans-5b" transform="translate(61.181641 0.234375)"/>
      <use xlink:href="#DejaVuSans-36" transform="translate(100.195312 0.234375)"/>
      <use xlink:href="#DejaVuSans-5d" transform="translate(163.818359 0.234375)"/>
     </g>
    </g>
   </g>
   <g id="text_38">
    <g clip-path="url(#p67e90ed8f1)">
     <!-- $\mathrm{R_Y}$ -->
     <g style="fill: #ffffff" transform="translate(962.826344 182.41287) scale(0.13 -0.13)">
      <use xlink:href="#DejaVuSans-52" transform="translate(0 0.09375)"/>
      <use xlink:href="#DejaVuSans-59" transform="translate(70.439453 -16.3125) scale(0.7)"/>
     </g>
    </g>
   </g>
   <g id="text_39">
    <g clip-path="url(#p67e90ed8f1)">
     <!-- $\theta$[8] -->
     <g style="fill: #ffffff" transform="translate(962.246344 333.653726) scale(0.08 -0.08)">
      <defs>
       <path id="DejaVuSans-38" d="M 2034 2216 
Q 1584 2216 1326 1975 
Q 1069 1734 1069 1313 
Q 1069 891 1326 650 
Q 1584 409 2034 409 
Q 2484 409 2743 651 
Q 3003 894 3003 1313 
Q 3003 1734 2745 1975 
Q 2488 2216 2034 2216 
z
M 1403 2484 
Q 997 2584 770 2862 
Q 544 3141 544 3541 
Q 544 4100 942 4425 
Q 1341 4750 2034 4750 
Q 2731 4750 3128 4425 
Q 3525 4100 3525 3541 
Q 3525 3141 3298 2862 
Q 3072 2584 2669 2484 
Q 3125 2378 3379 2068 
Q 3634 1759 3634 1313 
Q 3634 634 3220 271 
Q 2806 -91 2034 -91 
Q 1263 -91 848 271 
Q 434 634 434 1313 
Q 434 1759 690 2068 
Q 947 2378 1403 2484 
z
M 1172 3481 
Q 1172 3119 1398 2916 
Q 1625 2713 2034 2713 
Q 2441 2713 2670 2916 
Q 2900 3119 2900 3481 
Q 2900 3844 2670 4047 
Q 2441 4250 2034 4250 
Q 1625 4250 1398 4047 
Q 1172 3844 1172 3481 
z
" transform="scale(0.015625)"/>
      </defs>
      <use xlink:href="#DejaVuSans-Oblique-3b8" transform="translate(0 0.234375)"/>
      <use xlink:href="#DejaVuSans-5b" transform="translate(61.181641 0.234375)"/>
      <use xlink:href="#DejaVuSans-38" transform="translate(100.195312 0.234375)"/>
      <use xlink:href="#DejaVuSans-5d" transform="translate(163.818359 0.234375)"/>
     </g>
    </g>
   </g>
   <g id="text_40">
    <g clip-path="url(#p67e90ed8f1)">
     <!-- $\mathrm{R_Y}$ -->
     <g style="fill: #ffffff" transform="translate(962.826344 321.474868) scale(0.13 -0.13)">
      <use xlink:href="#DejaVuSans-52" transform="translate(0 0.09375)"/>
      <use xlink:href="#DejaVuSans-59" transform="translate(70.439453 -16.3125) scale(0.7)"/>
     </g>
    </g>
   </g>
   <g id="text_41">
    <g clip-path="url(#p67e90ed8f1)">
     <!-- $\theta$[13] -->
     <g style="fill: #ffffff" transform="translate(1098.748343 333.653726) scale(0.08 -0.08)">
      <use xlink:href="#DejaVuSans-Oblique-3b8" transform="translate(0 0.234375)"/>
      <use xlink:href="#DejaVuSans-5b" transform="translate(61.181641 0.234375)"/>
      <use xlink:href="#DejaVuSans-31" transform="translate(100.195312 0.234375)"/>
      <use xlink:href="#DejaVuSans-33" transform="translate(163.818359 0.234375)"/>
      <use xlink:href="#DejaVuSans-5d" transform="translate(227.441406 0.234375)"/>
     </g>
    </g>
   </g>
   <g id="text_42">
    <g clip-path="url(#p67e90ed8f1)">
     <!-- $\mathrm{R_Y}$ -->
     <g style="fill: #ffffff" transform="translate(1101.888343 321.474868) scale(0.13 -0.13)">
      <use xlink:href="#DejaVuSans-52" transform="translate(0 0.09375)"/>
      <use xlink:href="#DejaVuSans-59" transform="translate(70.439453 -16.3125) scale(0.7)"/>
     </g>
    </g>
   </g>
   <g id="text_43">
    <g clip-path="url(#p67e90ed8f1)">
     <!-- $\theta$[12] -->
     <g style="fill: #ffffff" transform="translate(1145.102342 287.299726) scale(0.08 -0.08)">
      <use xlink:href="#DejaVuSans-Oblique-3b8" transform="translate(0 0.234375)"/>
      <use xlink:href="#DejaVuSans-5b" transform="translate(61.181641 0.234375)"/>
      <use xlink:href="#DejaVuSans-31" transform="translate(100.195312 0.234375)"/>
      <use xlink:href="#DejaVuSans-32" transform="translate(163.818359 0.234375)"/>
      <use xlink:href="#DejaVuSans-5d" transform="translate(227.441406 0.234375)"/>
     </g>
    </g>
   </g>
   <g id="text_44">
    <g clip-path="url(#p67e90ed8f1)">
     <!-- $\mathrm{R_Y}$ -->
     <g style="fill: #ffffff" transform="translate(1148.242342 275.120869) scale(0.13 -0.13)">
      <use xlink:href="#DejaVuSans-52" transform="translate(0 0.09375)"/>
      <use xlink:href="#DejaVuSans-59" transform="translate(70.439453 -16.3125) scale(0.7)"/>
     </g>
    </g>
   </g>
   <g id="text_45">
    <g clip-path="url(#p67e90ed8f1)">
     <!-- $\theta$[14] -->
     <g style="fill: #ffffff" transform="translate(1376.872339 287.299726) scale(0.08 -0.08)">
      <use xlink:href="#DejaVuSans-Oblique-3b8" transform="translate(0 0.234375)"/>
      <use xlink:href="#DejaVuSans-5b" transform="translate(61.181641 0.234375)"/>
      <use xlink:href="#DejaVuSans-31" transform="translate(100.195312 0.234375)"/>
      <use xlink:href="#DejaVuSans-34" transform="translate(163.818359 0.234375)"/>
      <use xlink:href="#DejaVuSans-5d" transform="translate(227.441406 0.234375)"/>
     </g>
    </g>
   </g>
   <g id="text_46">
    <g clip-path="url(#p67e90ed8f1)">
     <!-- $\mathrm{R_Y}$ -->
     <g style="fill: #ffffff" transform="translate(1380.012339 275.120869) scale(0.13 -0.13)">
      <use xlink:href="#DejaVuSans-52" transform="translate(0 0.09375)"/>
      <use xlink:href="#DejaVuSans-59" transform="translate(70.439453 -16.3125) scale(0.7)"/>
     </g>
    </g>
   </g>
   <g id="text_47">
    <g clip-path="url(#p67e90ed8f1)">
     <!-- $\theta$[15] -->
     <g style="fill: #ffffff" transform="translate(1515.934337 380.007725) scale(0.08 -0.08)">
      <use xlink:href="#DejaVuSans-Oblique-3b8" transform="translate(0 0.234375)"/>
      <use xlink:href="#DejaVuSans-5b" transform="translate(61.181641 0.234375)"/>
      <use xlink:href="#DejaVuSans-31" transform="translate(100.195312 0.234375)"/>
      <use xlink:href="#DejaVuSans-35" transform="translate(163.818359 0.234375)"/>
      <use xlink:href="#DejaVuSans-5d" transform="translate(227.441406 0.234375)"/>
     </g>
    </g>
   </g>
   <g id="text_48">
    <g clip-path="url(#p67e90ed8f1)">
     <!-- $\mathrm{R_Y}$ -->
     <g style="fill: #ffffff" transform="translate(1519.074337 367.828868) scale(0.13 -0.13)">
      <use xlink:href="#DejaVuSans-52" transform="translate(0 0.09375)"/>
      <use xlink:href="#DejaVuSans-59" transform="translate(70.439453 -16.3125) scale(0.7)"/>
     </g>
    </g>
   </g>
  </g>
 </g>
 <defs>
  <clipPath id="p67e90ed8f1">
   <rect x="7.2" y="7.2" width="1596.361976" height="389.373595"/>
  </clipPath>
 </defs>
</svg>
